<svg xmlns="http://www.w3.org/2000/svg" width="920" height="1089" viewBox="0 0 920 1089" version="1.1"><path d="M 455.989 118.068 C 454.985 124.018, 454.536 125.025, 453.148 124.433 C 449.392 122.830, 447.509 123.423, 447.178 126.310 C 447.001 127.856, 447.389 129.763, 448.040 130.549 C 448.965 131.663, 448.926 132.064, 447.863 132.378 C 433.962 136.475, 432.441 139.993, 443.048 143.516 L 447.942 145.142 447.335 149.571 C 446.761 153.764, 446.858 154, 449.164 154 C 450.504 154, 452.132 153.467, 452.783 152.817 C 454.436 151.164, 454.588 151.507, 456.177 160.500 C 457.492 167.944, 457.761 168.500, 460.045 168.500 C 462.341 168.500, 462.591 167.962, 463.911 160.205 C 465.086 153.302, 465.589 152.023, 466.911 152.584 C 472.567 154.982, 475.001 153.291, 472.811 148.484 C 471.477 145.557, 471.194 145.870, 477.416 143.384 C 486.168 139.887, 485.984 136.206, 476.942 133.888 C 471.566 132.511, 471.438 132.328, 473.177 128.510 C 474.156 126.361, 474.070 125.641, 472.661 124.233 C 471.263 122.834, 470.624 122.753, 468.997 123.770 C 465.773 125.783, 465.346 125.303, 464.200 118.385 C 463.597 114.747, 462.855 111.522, 462.552 111.218 C 461.060 109.726, 461.024 112.534, 462.441 120.003 C 463.298 124.523, 464 128.408, 464 128.636 C 464 128.865, 465.328 128.365, 466.950 127.526 C 471.426 125.211, 472.143 125.631, 470.305 129.487 C 469.390 131.406, 468.835 133.144, 469.071 133.351 C 469.307 133.557, 472.087 134.575, 475.250 135.613 C 478.413 136.651, 481.107 137.950, 481.238 138.500 C 481.370 139.050, 478.928 140.404, 475.813 141.508 C 472.698 142.613, 469.858 143.809, 469.501 144.165 C 469.144 144.522, 469.594 146.248, 470.500 148 C 472.640 152.138, 471.885 152.720, 467.632 150.211 L 464.179 148.173 462.406 157.587 C 461.431 162.764, 460.327 167, 459.953 167 C 459.578 167, 459.007 165.088, 458.684 162.750 C 458.361 160.412, 457.587 156.134, 456.964 153.242 L 455.831 147.984 452.858 150.101 C 449.223 152.689, 448.422 152.097, 449.884 147.902 C 451.419 143.499, 451.364 143.324, 448.250 142.690 C 446.738 142.382, 443.735 141.387, 441.579 140.480 C 437.013 138.559, 437.602 137.844, 445.750 135.420 C 451.392 133.742, 451.609 133.430, 449.838 129.543 C 448.290 126.146, 449.176 125.522, 452.850 127.423 C 454.756 128.408, 456.116 128.622, 456.502 127.996 C 456.841 127.448, 456.922 127, 456.683 127 C 456.444 127, 456.851 124.188, 457.589 120.750 C 459.191 113.283, 459.308 111, 458.090 111 C 457.590 111, 456.644 114.181, 455.989 118.068 M 390.992 170.750 C 390.978 172.217, 388.937 184.521, 388.506 185.744 C 388.164 186.714, 387.501 186.730, 385.497 185.817 C 383.376 184.850, 382.639 184.932, 381.286 186.286 C 379.923 187.648, 379.847 188.368, 380.835 190.538 C 382.412 193.999, 381.897 194.585, 376.042 195.990 C 368.309 197.845, 367.894 202.952, 375.318 204.887 C 381.680 206.545, 382.328 207.186, 380.874 210.378 C 379.849 212.627, 379.905 213.333, 381.211 214.640 C 382.102 215.531, 383.579 215.951, 384.638 215.615 C 388.173 214.493, 388.506 214.933, 390 222.701 C 391.283 229.371, 391.813 230.545, 393.664 230.808 C 396.142 231.161, 396.341 230.677, 398.027 220.186 C 399.125 213.350, 399.315 212.975, 400.930 214.436 C 404.877 218.009, 408.237 215.116, 406.251 209.855 C 405.185 207.030, 405.223 206.991, 410.504 205.456 C 420.292 202.610, 420.495 198.520, 410.985 195.730 C 405.557 194.138, 405.054 193.768, 405.976 192.046 C 408.582 187.176, 406.102 183.721, 401.504 185.816 C 398.916 186.995, 398.925 187.015, 397.447 177.500 C 396.396 170.736, 396.002 170, 393.433 170 C 392.095 170, 390.997 170.338, 390.992 170.750 M 524.002 172.496 C 523.451 173.945, 523 175.529, 523 176.016 C 523 176.503, 522.518 179.149, 521.929 181.897 C 520.905 186.669, 520.752 186.844, 518.492 185.815 C 513.925 183.734, 511.417 187.174, 513.993 191.988 C 514.865 193.617, 514.346 194.051, 509.743 195.540 C 506.860 196.472, 503.894 197.805, 503.152 198.501 C 500.842 200.671, 503.383 203.440, 509.431 205.347 C 514.383 206.908, 514.900 207.319, 514.007 208.987 C 511.490 213.691, 514.487 217.415, 518.892 215.058 C 520.697 214.092, 520.953 214.479, 521.993 219.752 C 523.782 228.822, 524.492 230.476, 526.742 230.808 C 529.111 231.158, 529.536 230.149, 530.460 221.991 C 531.279 214.753, 532.101 213.422, 534.734 215.066 C 538.812 217.613, 541.541 213.748, 539.007 209.012 C 538.135 207.383, 538.654 206.949, 543.257 205.460 C 553.199 202.244, 553.431 199.009, 543.944 195.862 C 540.950 194.869, 538.427 194.044, 538.337 194.028 C 538.247 194.013, 538.658 192.716, 539.250 191.147 C 539.843 189.579, 540.043 187.554, 539.695 186.647 C 538.979 184.781, 534.962 184.438, 533.299 186.101 C 531.892 187.508, 531.121 185.196, 530.193 176.783 C 529.586 171.281, 529.221 170.460, 527.252 170.181 C 525.590 169.945, 524.742 170.549, 524.002 172.496 M 392.717 174.177 C 392.422 175.455, 391.617 179.767, 390.929 183.759 L 389.676 191.018 387.279 189.447 C 385.960 188.583, 384.236 188.017, 383.446 188.188 C 382.218 188.455, 382.234 188.928, 383.562 191.472 C 384.977 194.186, 384.968 194.550, 383.456 195.656 C 382.546 196.321, 379.595 197.431, 376.900 198.122 C 374.205 198.813, 372.004 199.856, 372.009 200.439 C 372.013 201.023, 374.721 202.343, 378.026 203.373 C 381.330 204.404, 384.249 205.594, 384.512 206.019 C 384.774 206.444, 384.340 208.044, 383.546 209.574 C 381.517 213.486, 382.601 214.410, 386.439 212.038 L 389.719 210.011 391.015 217.755 C 391.728 222.015, 392.647 226.400, 393.056 227.500 C 393.984 229.996, 394.390 228.950, 395.968 220 C 397.849 209.330, 397.659 209.621, 401.130 212.093 C 404.857 214.746, 405.539 214.132, 403.900 209.600 C 403.194 207.648, 402.815 205.876, 403.058 205.662 C 403.301 205.449, 406.087 204.425, 409.250 203.387 C 412.413 202.349, 415.113 201.076, 415.250 200.557 C 415.387 200.038, 412.575 198.708, 409 197.601 C 405.425 196.495, 402.368 195.513, 402.207 195.419 C 402.046 195.325, 402.689 193.623, 403.636 191.636 C 405.799 187.100, 404.826 186.013, 401.080 188.783 C 397.697 191.284, 397.755 191.373, 395.979 181 C 394.570 172.765, 393.540 170.612, 392.717 174.177 M 525.676 173.402 C 525.380 174.173, 524.605 178.452, 523.953 182.911 L 522.767 191.019 519.537 189.023 C 515.489 186.521, 514.671 187.277, 516.553 191.781 C 517.363 193.720, 517.908 195.396, 517.763 195.506 C 517.618 195.615, 514.688 196.531, 511.250 197.541 C 507.813 198.552, 505 199.859, 505 200.446 C 505 201.033, 506.688 202.040, 508.750 202.685 C 518.207 205.640, 518.090 205.540, 516.505 209.335 C 514.675 213.714, 515.515 214.463, 519.495 212.003 L 522.683 210.033 523.917 218.330 C 525.223 227.104, 526.498 230.669, 527.366 227.972 C 527.627 227.162, 528.381 222.787, 529.042 218.250 C 529.704 213.713, 530.433 210, 530.663 210 C 530.893 210, 532.407 210.981, 534.028 212.179 C 537.797 214.965, 538.812 213.926, 536.683 209.461 L 535.007 205.948 537.754 204.848 C 539.264 204.243, 542.214 203.218, 544.308 202.570 C 546.402 201.923, 548.116 200.991, 548.116 200.500 C 548.116 200.009, 546.402 199.077, 544.308 198.430 C 542.214 197.782, 539.248 196.751, 537.718 196.139 C 535.001 195.051, 534.972 194.955, 536.468 192.062 C 537.311 190.433, 538 188.641, 538 188.081 C 538 186.827, 535.111 187.779, 532.744 189.813 C 531.778 190.642, 530.834 191.136, 530.646 190.911 C 529.956 190.081, 528 178.565, 528 175.333 C 528 171.953, 526.659 170.839, 525.676 173.402 M 425.644 240.098 C 422.325 244.836, 425.270 263.150, 430.997 273.383 C 433.959 278.677, 440.522 295.278, 444.485 307.500 C 447.300 316.183, 448.052 326.462, 447.177 344.318 L 446.500 358.136 440 349.336 C 436.425 344.496, 430.658 337.378, 427.184 333.518 C 417.594 322.863, 414.994 318.490, 415.032 313.079 C 415.085 305.421, 419.931 302.193, 423.408 307.500 C 426.795 312.669, 431.618 309.642, 430.715 302.913 C 429.801 296.096, 424.265 292, 415.966 292 C 411.348 292, 408.704 293.123, 404.839 296.724 L 402.179 299.203 401.046 297.085 C 400.422 295.921, 399.463 289.687, 398.914 283.234 C 397.521 266.858, 396.395 260.428, 393.708 253.500 C 391.595 248.055, 391.108 247.500, 388.440 247.500 L 385.500 247.500 385.179 263.500 C 384.785 283.163, 386.373 298.334, 389.589 305.604 C 392.980 313.273, 400.736 325.328, 410.257 337.726 C 414.806 343.652, 420.650 351.492, 423.243 355.149 C 434.472 370.987, 442.324 390.442, 445.585 410.500 L 446.235 414.500 442.278 408.466 C 430.070 389.843, 410.612 385.703, 399.601 399.384 C 395.299 404.730, 393.998 408.807, 394.010 416.899 C 394.022 425.153, 396.929 431.728, 403.274 437.852 C 406.862 441.315, 408.238 442.059, 410.009 441.497 C 411.935 440.886, 412.166 440.273, 411.721 436.955 C 411.438 434.846, 410.485 431.674, 409.603 429.906 C 407.557 425.804, 407.509 415.850, 409.518 411.965 C 412.253 406.676, 417.607 407.082, 424.457 413.096 C 432.768 420.393, 441.867 446.282, 443.554 467.433 L 444.267 476.366 439.250 472.683 C 436.490 470.657, 433.912 469, 433.520 469 C 433.129 469, 431.614 468.167, 430.154 467.148 C 428.694 466.130, 421.875 462.363, 415 458.778 C 408.125 455.193, 400.250 451.020, 397.500 449.505 C 380.718 440.258, 368.554 429.635, 365.455 421.521 C 363.716 416.967, 363.714 416.503, 365.401 410.137 C 366.369 406.487, 369.696 398.100, 372.795 391.500 C 378.159 380.078, 378.458 379.019, 379.016 369.500 C 379.804 356.044, 381.057 354, 388.517 354 C 396.458 354, 399.649 357.718, 400.820 368.336 C 401.460 374.135, 401.664 374.519, 404.272 374.819 C 406.626 375.089, 407.268 374.602, 408.522 371.601 C 411.952 363.392, 409.402 351.730, 402.783 345.357 C 400.427 343.089, 397.517 340.731, 396.316 340.117 C 393.104 338.475, 382.412 338.736, 378.921 340.541 C 377.282 341.388, 375.521 341.822, 375.008 341.505 C 371.840 339.547, 371.168 325.091, 373.520 309.500 C 374.924 300.196, 374.910 299.413, 373.323 298.250 C 372.385 297.563, 371.209 297, 370.710 297 C 368.733 297, 363.994 303.400, 361.974 308.798 C 357.186 321.594, 357.307 328.033, 362.661 345.176 C 366.181 356.449, 366.305 369.022, 362.974 377.004 C 360.342 383.313, 351.847 397.935, 350.792 397.974 C 349.636 398.016, 346.117 385.009, 344.971 376.453 C 343.499 365.466, 341.727 360.351, 334.636 346.620 C 327.976 333.725, 318.640 321.500, 315.452 321.500 C 312.043 321.500, 312.305 328.469, 315.959 335.025 C 324.520 350.382, 327.188 358.799, 330.488 380.850 C 335.039 411.260, 343.381 427.275, 363.234 443.721 C 376.236 454.492, 383.730 459.411, 399.664 467.638 C 425.321 480.884, 431.328 485.633, 437.814 497.803 C 439.488 500.944, 441.769 506.801, 442.882 510.817 L 444.906 518.120 440.203 514.757 C 421.112 501.106, 398.851 498.646, 372.064 507.226 C 363.020 510.122, 350.942 510.019, 344.918 506.993 C 342.488 505.773, 339.444 503.813, 338.153 502.637 C 332.725 497.695, 329.770 487.256, 331.940 480.683 C 334.065 474.243, 343.106 473.547, 345.868 479.610 C 347.039 482.179, 349.856 482.744, 351.800 480.800 C 353.314 479.286, 353.366 470.581, 351.878 467.684 C 351.261 466.483, 349.622 464.284, 348.235 462.797 C 346.050 460.452, 345.797 459.495, 346.334 455.581 C 347.303 448.511, 345.272 435.213, 342.351 429.500 C 337.525 420.063, 329.846 414.297, 326.526 417.617 C 325.189 418.954, 325.199 419.527, 326.621 422.810 C 329.811 430.177, 331.365 437.673, 331.429 446 C 331.500 455.130, 330.811 457.007, 320.478 475.837 C 317.489 481.284, 317 483.112, 317 488.844 C 317 492.512, 317.406 496.930, 317.903 498.661 L 318.805 501.808 313.653 499.716 C 300.972 494.567, 291.008 485.426, 285.623 474 C 283.031 468.500, 282.567 466.346, 282.606 460 C 282.746 437.726, 296.522 419.662, 306.694 428.414 C 309.181 430.553, 309.516 431.549, 309.641 437.164 C 309.719 440.649, 309.831 444.063, 309.891 444.750 C 310.065 446.747, 314.805 446.195, 317.088 443.912 C 320.850 440.150, 322.085 435.721, 320.986 429.928 C 320.444 427.068, 320 424.565, 320 424.366 C 320 423.272, 312.234 415.655, 309.875 414.435 C 308.348 413.646, 304.874 413, 302.155 413 L 297.211 413 298.081 409.250 C 300.038 400.825, 298.651 385.212, 295.377 378.797 C 294.618 377.310, 292.354 374.497, 290.345 372.547 C 287.161 369.455, 286.059 369, 281.747 369 C 277.472 369, 276.346 369.454, 273.459 372.341 C 269.184 376.616, 268.149 380.403, 270.536 383.040 C 272.632 385.356, 274.848 385.556, 276.390 383.569 C 277 382.782, 278.400 381.995, 279.500 381.819 C 282.295 381.373, 286.214 389.433, 286.283 395.770 C 286.334 400.426, 283.677 412.764, 281.949 415.898 C 279.457 420.417, 269.756 444.731, 269.283 447.641 C 268.984 449.488, 268.412 451, 268.013 451 C 267.615 451, 266.289 446.613, 265.067 441.250 C 263.845 435.887, 261.949 427.642, 260.854 422.926 C 258.477 412.687, 254.374 405.062, 247.212 397.571 C 240.340 390.382, 234.484 387.009, 227.655 386.304 C 222.739 385.796, 222.152 385.946, 221.544 387.862 C 220.618 390.779, 221.124 391.338, 228.363 395.386 C 239.651 401.699, 245.847 410.857, 248.004 424.414 C 252.542 452.935, 253.843 457.800, 260.428 470.863 C 269.001 487.873, 282.171 502.642, 295.157 509.810 C 301.909 513.538, 320.501 520.916, 327.284 522.559 L 330.069 523.234 325.284 528.411 C 322.653 531.259, 316.675 538.462, 312 544.419 C 297.970 562.297, 288.252 569.547, 276.867 570.632 C 269.956 571.290, 263.773 568.294, 259.578 562.255 C 253.662 553.741, 255.366 541.162, 262.855 538.060 C 265.183 537.096, 266.330 537.190, 269.255 538.584 C 274.117 540.903, 276 539.979, 276 535.274 C 276 532.193, 275.318 530.860, 272.347 528.134 C 268.905 524.974, 268.357 524.806, 262.820 525.207 C 257.167 525.616, 256.927 525.535, 256.460 523.066 C 255.373 517.331, 250.731 505.175, 247.713 500.164 C 243.074 492.460, 235.681 485.788, 232.224 486.186 C 228.578 486.606, 228.178 489.864, 231.312 493.612 C 234.398 497.302, 237.664 503.747, 240.346 511.436 C 242.248 516.891, 242.462 519.711, 242.480 539.500 C 242.499 560.695, 242.587 561.665, 244.871 566 C 246.174 568.475, 248.792 572.413, 250.688 574.750 C 253.704 578.470, 253.889 579, 252.171 579 C 248.728 579, 236.464 573.467, 232.051 569.923 C 227.075 565.927, 225.038 562.284, 222.033 552 C 219.725 544.103, 218.084 541.904, 215.087 542.687 C 211.228 543.697, 209.589 558.749, 212.455 566.872 C 213.896 570.957, 213.885 571.008, 211.205 572.408 C 209.717 573.186, 207.166 575.225, 205.535 576.940 C 202.739 579.881, 202.568 580.536, 202.535 588.468 C 202.501 596.730, 202.561 596.941, 205.972 600.465 C 207.881 602.438, 211.051 604.534, 213.016 605.123 C 221.875 607.777, 224.659 603.686, 218.575 596.952 C 216.609 594.775, 215 592.174, 215 591.171 C 215 588.919, 218.543 585.496, 222.378 584.043 C 225.575 582.831, 230.930 584.436, 241.753 589.848 C 249.899 593.921, 256.643 595.935, 263 596.194 L 268.500 596.417 268.500 604.458 C 268.500 613.934, 270.200 617.644, 276.875 622.735 C 285.443 629.271, 296.540 626.048, 295.810 617.236 C 295.440 612.776, 292.485 611.701, 289.540 614.956 C 286.876 617.900, 285.101 617.485, 283.449 613.532 C 281.723 609.402, 281.615 604.893, 283.078 598.070 C 284.058 593.504, 284.862 592.453, 291.828 586.628 C 301.571 578.483, 313.026 566.338, 330.481 545.648 C 336.402 538.628, 345.092 531.759, 351.683 528.888 C 357.926 526.168, 384.763 519.439, 392.500 518.654 C 407.780 517.102, 420.876 521.755, 431.458 532.495 C 435.056 536.146, 438 539.501, 438 539.950 C 438 540.399, 436.087 540.100, 433.750 539.286 C 417.961 533.788, 397.849 536.872, 382.609 547.128 C 367.085 557.575, 362.704 564.269, 346.439 602.382 C 342.078 612.603, 336.212 620.587, 331.658 622.502 C 327.765 624.139, 326.467 623.254, 323.869 617.194 C 322.362 613.679, 321.584 612.920, 319.755 613.180 C 317.685 613.474, 317.476 614.093, 317.207 620.719 C 316.855 629.391, 318.229 632.074, 324.263 634.488 C 328.800 636.304, 333.327 635.913, 338.465 633.264 C 343.502 630.666, 351.594 621.653, 356.556 613.114 L 361.237 605.056 363.392 608.254 C 366.372 612.676, 371.646 616, 375.680 616 C 383.403 616, 389 611.227, 389 604.642 C 389 600.192, 386.598 599.182, 382.761 602.019 C 376.594 606.578, 371.647 602.321, 370.361 591.348 C 369.695 585.662, 372.375 576.953, 376.720 570.682 C 379.778 566.269, 388.219 559.642, 393.696 557.354 C 397.247 555.870, 397.265 555.875, 396.538 558.180 C 396.135 559.456, 395.572 564.633, 395.286 569.684 C 394.673 580.528, 395.807 584.712, 401.903 594.093 C 406.480 601.137, 406.716 602.430, 404.338 607.418 C 402.972 610.283, 402.904 611.180, 403.960 612.452 C 405.902 614.792, 408.834 614.319, 411.996 611.158 C 417.793 605.361, 418.109 593.929, 412.711 585.299 C 409.174 579.644, 408 575.413, 408 568.319 C 408 557.305, 411.719 552, 419.439 552 C 423.699 552, 431.651 554.597, 433.799 556.690 C 434.514 557.386, 435.693 558.303, 436.419 558.728 C 438.476 559.931, 442.277 568.040, 443.028 572.828 C 443.401 575.208, 443.333 611.883, 442.877 654.328 C 441.200 810.379, 438.184 856.861, 428.488 876.036 C 422.786 887.311, 414.928 895.178, 398.734 905.821 C 393.032 909.569, 385.528 911.645, 372.878 912.973 C 346.016 915.794, 336.479 917.581, 324 922.129 C 308.388 927.819, 297.089 938.936, 297.022 948.673 C 296.995 952.575, 301.272 958.011, 304.339 957.973 C 306.341 957.949, 306.300 957.823, 303.784 956.262 C 297.809 952.557, 297.714 945.031, 303.556 938.206 C 314.017 925.985, 334.167 918.894, 366.500 916.058 C 384.834 914.449, 392.316 912.610, 399.844 907.863 C 420.382 894.913, 430.255 882.666, 434.882 864.402 C 437.428 854.349, 440.685 825.902, 441.511 806.500 C 443.414 761.828, 443.760 747.988, 443.902 710.896 C 443.988 688.564, 444.223 669.437, 444.425 668.392 C 444.626 667.347, 444.938 644.894, 445.118 618.496 L 445.446 570.500 443.084 565.212 C 440.139 558.621, 433.527 552.622, 427.549 551.117 C 412.421 547.307, 406 552.579, 406 568.809 C 406 575.920, 406.375 577.449, 409.867 584.591 C 411.994 588.941, 414.020 594.023, 414.369 595.885 C 415.153 600.066, 413.668 605.881, 410.924 609.369 C 408.293 612.714, 405.484 612.952, 406.435 609.750 C 408.666 602.246, 408.379 600.221, 404.171 593.763 C 401.923 590.312, 399.390 585.523, 398.542 583.119 C 396.567 577.521, 396.571 567.443, 398.552 559.800 C 399.405 556.506, 399.968 553.445, 399.802 552.997 C 399.636 552.549, 396.235 553.739, 392.244 555.641 C 374.178 564.252, 364.341 582.467, 369.450 597.849 C 371.180 603.057, 374.864 607, 378 607 C 378.952 607, 380.874 606.100, 382.273 605 C 385.643 602.349, 387 602.477, 387 605.444 C 387 609.525, 383.050 613.129, 377.967 613.687 C 372.089 614.331, 367.377 611.265, 364.104 604.665 L 361.708 599.834 360.033 602.667 C 352.201 615.916, 350.195 619.050, 347.070 622.922 C 337.773 634.441, 323.914 636.661, 319.492 627.341 C 317.490 623.124, 317.818 615.500, 320 615.500 C 320.825 615.500, 321.635 616.444, 321.800 617.597 C 321.964 618.750, 323.342 621.183, 324.861 623.003 C 327.183 625.784, 328.062 626.201, 330.371 625.622 C 337.006 623.956, 344.078 614.140, 352.071 595.500 C 352.543 594.400, 354.704 589.314, 356.874 584.198 C 364.326 566.626, 371.315 557.287, 382.435 550.042 C 393.587 542.777, 401.930 539.940, 414.073 539.288 C 423.300 538.791, 425.500 539.003, 431.356 540.952 C 435.047 542.180, 439.354 544.269, 440.928 545.593 C 442.501 546.917, 444.061 548, 444.394 548 C 446.205 548, 438.539 536.765, 432.500 530.570 C 426.658 524.576, 424.176 522.836, 417.500 520.052 C 410.096 516.965, 408.680 516.715, 398.500 516.697 C 388.821 516.681, 385.526 517.182, 371.063 520.875 C 362.022 523.184, 352.797 525.891, 350.563 526.892 C 343.045 530.261, 334.568 537.721, 323 551.150 C 307.213 569.476, 299.889 577.089, 290.323 585.116 C 282.511 591.671, 282.093 592.233, 280.955 597.717 C 279.449 604.973, 280.242 614.505, 282.567 617.074 C 284.818 619.562, 288.210 619.530, 290.500 617 C 292.878 614.373, 294 614.472, 294 617.309 C 294 621.685, 291.642 623.507, 286.082 623.427 C 275.790 623.279, 269.280 613.941, 270.333 600.836 L 270.869 594.173 264.582 594.125 C 257.565 594.071, 251.629 592.330, 242 587.503 C 238.425 585.711, 232.975 583.452, 229.888 582.483 C 224.328 580.738, 224.234 580.743, 219.723 582.996 C 217.012 584.350, 214.476 586.557, 213.456 588.451 C 211.787 591.552, 211.807 591.733, 214.236 595.581 C 215.606 597.753, 217.464 600.140, 218.364 600.887 C 220.724 602.846, 220.379 604, 217.434 604 C 212.105 604, 205.368 598.479, 204.400 593.318 C 202.766 584.609, 207.471 574.934, 214.042 573.491 C 217.094 572.820, 217.604 572.091, 216.169 570.450 C 213.315 567.189, 212.083 553.928, 214.098 548.149 C 215.281 544.756, 218 543.833, 218 546.825 C 218 549.545, 222.534 562.359, 224.626 565.552 C 229.382 572.810, 243.374 579.964, 255.914 581.549 L 261.328 582.233 255.661 576.700 C 252.124 573.247, 248.871 568.792, 247.005 564.846 L 244.015 558.525 244.246 538.013 C 244.457 519.233, 244.291 516.933, 242.281 510.783 C 239.719 502.946, 237.879 499.196, 233.895 493.696 C 230.562 489.095, 230.331 488, 232.693 488 C 235.699 488, 244.950 498.685, 248.545 506.308 C 251.870 513.359, 255 523.550, 255 527.327 C 255 528.839, 255.466 529.092, 257.250 528.553 C 258.488 528.179, 261.391 527.620, 263.702 527.312 C 267.442 526.812, 268.248 527.094, 271.023 529.869 C 273.091 531.937, 274.025 533.746, 273.797 535.243 C 273.425 537.679, 273.102 537.716, 268.374 535.873 C 264.160 534.231, 259.676 536.111, 256.435 540.880 C 254.520 543.699, 254 545.752, 254 550.497 C 254 564.305, 264.336 574.071, 277.511 572.711 C 290.025 571.419, 298.745 564.692, 315.877 543.110 C 321.839 535.600, 328.347 528.024, 330.339 526.275 C 332.332 524.526, 333.633 522.892, 333.231 522.644 C 332.829 522.397, 327.550 520.542, 321.500 518.523 C 297.677 510.572, 284.460 502.058, 273.777 487.785 C 261.155 470.918, 253.664 452.347, 251.477 432.500 C 250.477 423.428, 248.264 414.438, 245.882 409.768 C 242.976 404.072, 235.694 396.967, 228.750 393.051 C 219.277 387.709, 224.063 385.887, 234.500 390.862 C 241.915 394.396, 250.642 403.327, 254.726 411.560 C 256.346 414.827, 258.440 421.100, 259.379 425.500 C 263.292 443.831, 265.342 451.746, 267.276 456 L 269.322 460.500 270.033 455.402 C 270.970 448.689, 272.110 445.326, 279.492 427.500 C 286.458 410.680, 288.327 404.015, 288.326 396 C 288.325 390.264, 285.609 382.559, 282.758 380.207 C 280.959 378.722, 276.679 379.477, 274.928 381.587 C 273.366 383.468, 272 382.431, 272 379.364 C 272 377.914, 273.240 375.606, 274.923 373.923 C 281.269 367.577, 290.617 371.885, 294.459 382.928 C 296.226 388.005, 296.614 408.255, 295.025 412.435 L 294.050 415 300.074 415 C 306.708 415, 310.128 416.372, 314.186 420.661 C 317.673 424.346, 319 428.004, 319 433.930 C 319 439.161, 316.201 444.001, 313.177 443.999 C 311.766 443.998, 311.499 442.874, 311.494 436.911 C 311.488 430.178, 311.325 429.680, 308.228 426.912 C 302.905 422.157, 295.933 423.209, 289.766 429.699 C 284.195 435.562, 279.115 453.949, 280.311 463.920 C 282.462 481.848, 299.330 499.026, 319.643 503.975 L 322.786 504.741 320.915 500.621 C 319.703 497.951, 319.036 494.173, 319.022 489.891 C 318.999 482.868, 319.855 480.691, 328.415 466 C 333.379 457.481, 334.683 449.934, 333.231 438.136 C 332.605 433.056, 331.197 427.402, 329.887 424.704 C 328.642 422.141, 327.958 419.708, 328.368 419.299 C 329.612 418.054, 334.233 421.283, 337.685 425.809 C 342.283 431.838, 343.477 436.815, 343.490 450 C 343.499 460.743, 343.649 461.621, 345.770 463.338 C 347.018 464.349, 348.706 466.465, 349.520 468.039 C 351.016 470.932, 351.546 478.120, 350.351 479.315 C 349.995 479.672, 347.913 478.347, 345.726 476.372 C 342.274 473.253, 341.279 472.855, 338.179 473.358 C 329.789 474.720, 326.780 483.715, 330.968 494.913 C 334.411 504.121, 341.188 509.336, 351.964 511.072 C 358.892 512.187, 365.761 511.284, 379.500 507.449 C 387.849 505.118, 391.481 504.653, 401.500 504.629 C 411.966 504.603, 414.434 504.934, 420.807 507.220 C 428.838 510.100, 439.924 516.380, 444.315 520.537 C 445.864 522.003, 447.290 523.044, 447.483 522.850 C 448.397 521.936, 443.460 504.805, 440.461 498.486 C 434.105 485.091, 427.032 479.084, 404 467.520 C 384.624 457.792, 369.367 447.329, 358.018 435.987 C 349.649 427.622, 347.879 425.209, 343.357 415.987 C 337.319 403.675, 334.217 393.274, 332.960 381.124 C 331.026 362.425, 326.203 347.884, 316.834 332.500 C 314.933 329.377, 314.339 324, 315.896 324 C 318.481 324, 329.032 339.265, 334.905 351.500 C 339.839 361.780, 341.001 365.472, 342.615 376 C 344.407 387.691, 347.414 398.054, 349.907 401.133 L 351.784 403.452 353.243 399.976 C 354.045 398.064, 356.479 393.575, 358.651 390 C 365.874 378.113, 367.328 373.610, 367.366 363 C 367.395 355.033, 366.862 351.725, 364.064 342.500 C 359.401 327.125, 359.799 317.181, 365.529 305.878 C 369.959 297.138, 372.562 296.862, 371.446 305.250 C 370.988 308.688, 370.588 317.901, 370.557 325.724 C 370.503 339.151, 370.625 340.072, 372.734 342.180 C 374.718 344.162, 375.336 344.284, 378.234 343.267 C 384.682 341.004, 388.744 340.784, 394.291 342.396 C 400.389 344.169, 404.002 347.919, 406.539 355.110 C 409.139 362.480, 407.955 373, 404.525 373 C 403.351 373, 403 371.786, 403 367.734 C 403 355.872, 394.249 348.577, 384.215 352.075 C 379.144 353.843, 377.656 357.246, 377.012 368.552 C 376.485 377.797, 376.090 379.323, 372.095 387.552 C 365.108 401.943, 362.928 408.085, 362.352 415 C 361.845 421.091, 362.014 421.802, 365.026 426.290 C 372.012 436.698, 386.988 447.070, 418 462.979 C 422.675 465.378, 430.932 470.219, 436.348 473.739 C 441.764 477.258, 446.357 479.976, 446.554 479.779 C 446.751 479.582, 446.286 473.763, 445.519 466.847 C 443.626 449.765, 439.216 433.280, 433.545 422.089 C 426.086 407.369, 413.336 401.480, 407.973 410.277 C 405.273 414.704, 405.310 424.681, 408.052 431.895 C 411.036 439.746, 409.937 441.309, 404.871 436.420 C 388.376 420.501, 396.014 393.820, 417 394.049 C 427.815 394.168, 436.332 401.312, 444.745 417.324 L 447.991 423.500 447.995 417.239 C 448.006 403.038, 439.488 375.854, 431 363 C 424.634 353.360, 421.681 349.193, 414.084 339.135 C 389.048 305.989, 387 300.446, 387 265.841 C 387 251.914, 387.247 249, 388.428 249 C 389.665 249, 392.275 254.523, 394.336 261.500 C 394.660 262.600, 395.400 269.350, 395.980 276.500 C 396.560 283.650, 397.548 291.586, 398.177 294.136 C 399.501 299.506, 402.822 304.312, 403.698 302.126 C 404.001 301.371, 405.506 299.346, 407.043 297.626 C 409.585 294.781, 410.377 294.500, 415.845 294.500 C 423.196 294.500, 427.048 296.907, 428.431 302.365 C 429.758 307.602, 427.789 309.454, 424.721 305.853 C 421.441 302.004, 419.477 301.728, 416.027 304.631 C 413.312 306.915, 413 307.763, 413 312.857 C 413 317.325, 413.563 319.385, 415.643 322.518 C 418.001 326.070, 427.481 337.714, 429.063 339 C 429.764 339.570, 444.624 359.248, 447.198 363.015 C 448.834 365.411, 448.906 364.963, 449.198 350.500 C 449.743 323.429, 449.234 314.966, 446.570 306.861 C 442.436 294.286, 437.107 280.840, 432.950 272.500 C 428.460 263.492, 426.764 255.923, 427.202 246.843 C 427.566 239.289, 429.320 238.241, 430.926 244.620 C 432.638 251.420, 436.511 260.212, 441.389 268.374 C 443.731 272.293, 446.783 277.525, 448.171 280 C 450.585 284.306, 457.110 299.968, 458.505 304.805 C 459.617 308.659, 461.102 306.833, 464.501 297.433 C 467.882 288.080, 471.847 280.046, 479.768 266.500 C 482.341 262.100, 485.864 254.450, 487.598 249.500 C 489.332 244.550, 491.112 240.500, 491.553 240.500 C 492.984 240.500, 494.073 246.382, 493.499 251 C 492.434 259.553, 490.710 265.526, 487.385 272.179 C 484.057 278.836, 479.277 290.764, 474.232 305 C 471.656 312.266, 471.562 313.325, 471.211 338.992 C 471.012 353.563, 471.058 365.263, 471.313 364.992 C 471.568 364.722, 475.273 359.775, 479.544 354 C 483.816 348.225, 487.580 343.275, 487.909 343 C 490.646 340.711, 503.971 323.604, 505.750 320.097 C 509.278 313.141, 508.353 306.772, 503.336 303.484 C 500.640 301.718, 497.767 302.683, 494.757 306.367 C 493.269 308.189, 492.874 308.282, 492.049 307.008 C 489.797 303.530, 493.605 296.615, 498.698 294.934 C 505.592 292.659, 513.817 295.697, 515.550 301.158 C 518.004 308.890, 523.857 292.646, 523.960 277.815 C 524.037 266.883, 528.878 249, 531.762 249 C 533.053 249, 533.188 252.105, 532.773 272.250 C 532.317 294.356, 532.165 295.835, 529.667 302.316 C 526.521 310.479, 519.041 322.161, 506.401 338.655 C 495.738 352.569, 489.613 361.800, 485.136 370.705 C 478.062 384.777, 473.565 400.697, 472.483 415.500 L 471.826 424.500 475.388 417.500 C 480.365 407.718, 485.703 401.078, 491.442 397.532 C 495.817 394.828, 497.186 394.503, 504.114 394.527 C 511.279 394.551, 512.176 394.792, 515.686 397.633 C 524.809 405.017, 526.939 416.587, 521.289 428.064 C 517.517 435.726, 512.587 440.987, 510.828 439.228 C 509.951 438.351, 510.348 436.475, 512.469 431.484 C 514.840 425.905, 515.185 423.982, 514.726 418.913 C 513.462 404.975, 504.093 401.812, 493.992 411.913 C 489.685 416.220, 487.520 419.902, 482.757 431.025 C 480.168 437.069, 476.263 454.055, 475.061 464.500 C 474.428 470, 473.717 475.738, 473.480 477.250 C 473.244 478.762, 473.268 480, 473.534 480 C 473.800 480, 477.767 477.582, 482.348 474.626 C 486.930 471.671, 496.038 466.430, 502.589 462.980 C 516.237 455.792, 532.264 446.830, 533 445.975 C 533.275 445.656, 535.300 444.314, 537.500 442.994 C 543.238 439.551, 553.879 429.138, 556.103 424.790 C 558.650 419.809, 558.573 411.528, 555.917 404.787 C 554.771 401.879, 551.675 395, 549.036 389.500 C 544.575 380.201, 544.206 378.834, 543.771 369.995 C 543.242 359.231, 541.556 354.856, 537.033 352.517 C 530.810 349.299, 522.702 351.807, 519.536 357.931 C 518.677 359.591, 517.691 363.661, 517.345 366.975 C 516.643 373.694, 514.997 374.822, 512.985 369.964 C 511.342 365.998, 512.241 357.399, 514.823 352.378 C 520.226 341.869, 530.582 338.585, 542.549 343.585 C 546.511 345.240, 547.477 344.389, 549.584 337.388 C 551.463 331.144, 551.373 321.620, 549.335 310.987 C 548.419 306.210, 547.979 301.498, 548.356 300.515 C 549.011 298.809, 549.135 298.812, 551.092 300.583 C 554.042 303.253, 557.515 311.457, 558.948 319.143 C 560.292 326.355, 559.622 331.888, 556 343.500 C 550.760 360.298, 551.228 370.161, 557.876 383 C 564.866 396.499, 568.491 402.984, 569.051 402.992 C 571.363 403.026, 576.400 385.844, 578.574 370.500 C 579.901 361.139, 590.224 340.222, 598.991 329.130 C 606.329 319.848, 608.306 324.339, 601.750 335.395 C 594.039 348.398, 589.633 362.840, 586.554 385.207 C 583.878 404.652, 576.149 421.743, 564.549 433.869 C 552.550 446.411, 538.544 456.277, 518.500 466.304 C 502.865 474.126, 491.813 481.232, 487.566 486.194 C 480.986 493.881, 473 513.073, 473 521.198 C 473 523.348, 473.033 523.344, 475.750 520.848 C 486.241 511.211, 504.335 504.052, 518.292 504.017 C 525.715 503.998, 536.853 505.993, 547 509.158 C 556.466 512.110, 569.860 512.034, 576.313 508.991 C 585.446 504.683, 589.949 497.977, 590.692 487.577 C 591.019 483.005, 590.677 480.646, 589.313 478.051 C 586.122 471.981, 578.043 471.610, 573.506 477.327 C 571.409 479.969, 570.824 480.249, 570.009 479 C 567.700 475.460, 570.628 465.427, 574.623 463.191 C 575.977 462.433, 576.294 460.221, 576.457 450.387 C 576.566 443.849, 577.194 436.845, 577.854 434.823 C 580.396 427.032, 589.281 416.948, 591.580 419.246 C 591.961 419.627, 591.337 422.114, 590.193 424.772 C 589.050 427.430, 587.549 433.518, 586.857 438.302 C 585.171 449.963, 586.546 456.793, 592.736 467.500 C 600.074 480.191, 600.425 481.109, 600.826 488.623 C 601.121 494.163, 600.764 496.745, 599.218 500.241 L 597.229 504.736 600.879 503.916 C 615.760 500.572, 630.354 488.858, 636.901 475 C 639.225 470.081, 639.486 468.390, 639.364 459 C 639.216 447.687, 637.430 440.823, 632.400 432.240 C 627.882 424.530, 617.927 421.496, 612.345 426.128 C 609.578 428.425, 607.807 434.271, 608.369 439.250 C 608.985 444.698, 607.517 445.544, 604 441.770 C 597.979 435.307, 601.268 422.466, 610.366 416.919 C 612.563 415.579, 615.362 415.006, 619.725 415.004 L 625.950 415 625.225 411.750 C 624.826 409.962, 624.539 403.100, 624.587 396.500 C 624.661 386.350, 625.001 383.864, 626.793 380.376 C 631.575 371.069, 639.445 368.292, 645.077 373.923 C 646.795 375.641, 648 377.908, 648 379.423 C 648 382.416, 646.906 382.640, 643.424 380.358 C 637.695 376.605, 632 384.570, 632 396.336 C 632 404.211, 634.298 412.158, 641.766 430.104 C 645.060 438.022, 648.531 447.988, 649.478 452.250 C 650.426 456.512, 651.320 460, 651.466 460 C 652.284 460, 656.151 447.054, 658.037 438 C 663.154 413.437, 666.595 405.995, 677.123 396.728 C 683.227 391.355, 689.554 388.151, 694.250 388.056 C 698.240 387.975, 697.625 389.641, 692.750 392.122 C 690.413 393.311, 685.466 397.223, 681.758 400.814 C 673.721 408.597, 671.446 413.704, 669.425 428.500 C 666.033 453.331, 661.794 465.206, 650.068 482.737 C 640.645 496.825, 630.830 505.365, 617.102 511.422 C 609.646 514.712, 595.960 519.754, 591.171 520.976 C 589.340 521.443, 587.565 522.101, 587.228 522.439 C 586.890 522.776, 589.103 525.628, 592.144 528.776 C 595.186 531.924, 601.969 539.928, 607.219 546.562 C 618.101 560.312, 623.464 565.390, 631.278 569.343 C 645.983 576.783, 660.039 571.939, 665.540 557.534 C 670.293 545.089, 660.255 531.197, 650.248 536.372 C 644.854 539.161, 644.307 535.033, 649.414 530.083 C 652.377 527.212, 653.337 526.840, 656.664 527.273 C 658.774 527.548, 661.436 528.082, 662.580 528.459 C 664.481 529.085, 664.804 528.490, 666.330 521.544 C 667.248 517.363, 669.577 510.620, 671.505 506.557 C 675.231 498.705, 684.335 488, 687.287 488 C 689.690 488, 689.472 488.826, 685.514 494.703 C 677.596 506.461, 673.768 524.153, 676.016 538.604 C 678.587 555.129, 675.057 566.928, 664.576 576.839 C 659.337 581.794, 659.229 582, 661.850 582 C 669.513 582, 683.081 576.814, 689.781 571.323 C 695.343 566.766, 697.438 563.340, 700.070 554.500 C 701.216 550.650, 702.330 546.938, 702.545 546.250 C 702.761 545.563, 703.412 545, 703.993 545 C 707.161 545, 708.065 559.518, 705.388 567.376 C 704.501 569.979, 703.938 572.210, 704.138 572.334 C 704.337 572.458, 706.165 573.316, 708.201 574.240 C 713.025 576.431, 715.001 579.607, 715.689 586.279 C 716.503 594.162, 714.780 598.459, 709.583 601.504 C 705.482 603.907, 700 604.870, 700 603.187 C 700 602.740, 701.317 601.112, 702.927 599.570 C 709.697 593.084, 708.824 587.029, 700.541 583.020 C 694.893 580.286, 692.324 580.740, 680.928 586.491 C 669.983 592.014, 663.220 594, 655.356 594 L 649.075 594 649.651 600.250 C 649.990 603.918, 649.728 608.344, 649.018 610.964 C 646.426 620.526, 635.303 626.844, 629.133 622.259 C 627.685 621.183, 626.358 619.109, 626.184 617.651 C 625.807 614.494, 627.017 614.256, 629.500 617 C 631.845 619.591, 635.196 619.547, 637.595 616.892 C 639.178 615.141, 639.498 613.240, 639.488 605.642 C 639.481 600.614, 639.150 595.321, 638.751 593.880 C 638.339 592.388, 635.705 589.508, 632.633 587.188 C 623.184 580.054, 615.197 572.054, 601.307 555.810 C 586.472 538.461, 578.326 530.990, 570.136 527.219 C 564.034 524.409, 536.519 517.523, 527.500 516.547 C 520.009 515.738, 508.800 517.300, 502.386 520.047 C 492.626 524.228, 482.921 533.510, 477.654 543.700 C 475.316 548.224, 475.547 548.447, 479.469 545.456 C 488.233 538.771, 506.617 536.933, 520.219 541.381 C 528.137 543.970, 532.750 546.401, 540.586 552.114 C 551.242 559.881, 556.369 567.726, 566.982 592.500 C 576.766 615.340, 581.699 622.755, 588.629 625.043 C 593.111 626.522, 595.421 625.082, 597.562 619.478 C 599.669 613.960, 601.391 614.157, 601.814 619.966 C 602.431 628.421, 598.280 633, 590 633 C 587.745 633, 584.686 632.371, 583.200 631.603 C 578.523 629.184, 569.621 618.849, 563.978 609.288 L 558.541 600.076 556.959 603.288 C 552.766 611.796, 549.054 614.539, 542.858 613.708 C 537.504 612.990, 534.308 610.680, 533.486 606.935 C 532.495 602.424, 534.211 601.302, 537.332 604.423 C 540.587 607.678, 543.040 607.679, 546.904 604.427 C 550.787 601.160, 552.361 595.455, 551.753 586.857 C 551.131 578.077, 548.058 571.910, 540.685 564.650 C 535.395 559.441, 521.504 551.162, 520.216 552.451 C 519.987 552.679, 520.401 554.584, 521.134 556.683 C 521.944 559.002, 522.474 565.050, 522.484 572.092 L 522.500 583.685 517.555 591.092 C 512.410 598.798, 511.715 601.785, 513.443 608.750 C 514.842 614.386, 510.356 612.551, 507.027 606.125 C 504.504 601.257, 505.603 593.840, 510.172 584.900 C 513.959 577.491, 514.427 575.815, 514.461 569.542 C 514.512 560.369, 511.990 553.563, 507.723 551.357 C 505.464 550.188, 502.945 549.891, 498.399 550.256 C 486.477 551.213, 478.715 558.139, 475.581 570.616 C 474.013 576.858, 473.952 580.359, 474.897 609.488 C 475.468 627.094, 476.197 672.100, 476.516 709.500 C 476.836 746.900, 477.276 779.075, 477.494 781 C 477.712 782.925, 478.385 794.625, 478.989 807 C 480.989 847.971, 485.155 870.760, 492.800 882.551 C 499.331 892.622, 512.932 904.397, 525 910.428 C 529.693 912.773, 542.804 915.155, 561.152 916.997 C 588.303 919.723, 605.217 926.014, 616.278 937.500 C 622.298 943.752, 622.743 950.263, 617.465 954.896 C 614.583 957.427, 614.290 958, 615.876 958 C 616.947 958, 619.036 956.558, 620.519 954.795 C 626.014 948.264, 621.962 937.770, 610.965 930.057 C 597.149 920.365, 582.272 916.520, 543.139 912.525 C 533.301 911.521, 525.985 908.784, 516.867 902.697 C 504.624 894.525, 496.742 886.248, 491.533 876.092 C 482.635 858.743, 478.062 794.882, 478.021 687.397 C 478.009 657.641, 477.532 620.952, 476.960 605.867 C 475.795 575.126, 476.443 569.099, 481.721 561.590 C 486.708 554.493, 499.072 550.130, 506.028 553.012 C 510.202 554.741, 512.270 559.801, 512.367 568.520 C 512.437 574.832, 512.034 576.346, 508.381 583.520 C 502.112 595.829, 501.898 604.160, 507.672 611.022 C 509.720 613.456, 510.925 614.043, 513.384 613.803 C 516.771 613.474, 516.763 613.513, 515.411 604.252 C 514.852 600.424, 515.242 599.280, 519.360 592.673 C 525.240 583.239, 526.708 575.302, 524.710 563.750 C 523.973 559.487, 523.529 556, 523.725 556 C 525.051 556, 533.240 560.893, 536.830 563.829 C 548.272 573.190, 553.037 588.554, 547.750 599.038 C 545.890 602.726, 544.953 603.553, 542.346 603.806 C 540.030 604.031, 538.793 603.542, 537.688 601.965 C 536.005 599.562, 533.250 599.650, 531.671 602.157 C 530.136 604.595, 532.522 611.641, 535.556 613.629 C 542.326 618.064, 552.227 615.783, 556.372 608.831 L 558.714 604.906 563.025 612.203 C 567.712 620.135, 577.731 631.218, 582.474 633.716 C 586.517 635.846, 594.913 635.875, 597.919 633.770 C 602.142 630.812, 603.986 626.919, 603.993 620.950 C 603.997 617.898, 603.460 614.860, 602.800 614.200 C 600.363 611.763, 598.130 612.919, 596.008 617.715 C 593.487 623.413, 592.546 624.086, 588.882 622.809 C 583.111 620.797, 577.205 610.999, 566.466 585.620 C 558.081 565.802, 550.632 555.968, 537.300 547.117 C 526.318 539.826, 516.442 536.818, 503.485 536.818 C 496.267 536.818, 491.888 537.351, 487.811 538.728 L 482.153 540.638 485.130 536.311 C 493.857 523.627, 512.832 516.268, 529.960 518.926 C 540.656 520.585, 564.847 526.882, 569.382 529.187 C 578.796 533.972, 587.140 541.962, 605.217 563.500 C 613.846 573.780, 623.337 583.055, 630.265 587.976 C 634.145 590.732, 635.305 592.288, 636.515 596.362 C 639.111 605.104, 637.985 615.523, 634.313 616.734 C 633.659 616.949, 632.169 616.169, 631.001 615.001 C 627.730 611.730, 624.568 612.690, 624.201 617.064 C 623.753 622.400, 627.695 626, 633.988 626 C 639.451 626, 643.645 623.574, 648.407 617.659 C 651.257 614.119, 651.527 613.118, 651.849 604.909 L 652.199 596 657.349 595.994 C 664.301 595.987, 668.420 594.720, 680.689 588.817 C 691.970 583.388, 696.043 582.731, 700.841 585.565 C 705.938 588.576, 706.398 591.181, 702.695 596.075 C 700.938 598.398, 699.091 600.845, 698.591 601.513 C 695.338 605.860, 703.779 607.622, 710 603.896 C 717.678 599.296, 719.765 594.351, 718 584.939 C 716.788 578.468, 714.532 575.037, 710.153 573 C 707.433 571.734, 707.026 571.109, 707.549 569 C 708.859 563.718, 709.192 550.583, 708.107 546.963 C 706.274 540.846, 700.751 541.034, 699.508 547.256 C 696.504 562.296, 691.492 569.496, 680.500 574.567 C 673.316 577.882, 666 580.265, 666 579.291 C 666 578.989, 667.627 576.942, 669.615 574.741 C 671.603 572.541, 674.308 568.385, 675.626 565.506 C 678.241 559.794, 678.490 556.273, 678 532 C 677.754 519.819, 677.976 517.739, 680.268 510.716 C 681.666 506.435, 684.689 500.046, 686.988 496.519 C 691.645 489.371, 691.861 486.660, 687.810 486.190 C 680.579 485.352, 668.708 503.028, 664.040 521.583 L 663.013 525.666 657.432 525.203 C 652.055 524.757, 651.707 524.880, 647.925 528.573 C 643.707 532.692, 642.776 536.739, 645.523 539.019 C 646.764 540.049, 647.762 539.960, 650.910 538.541 C 654.559 536.895, 654.972 536.893, 658.369 538.505 C 661.356 539.922, 662.250 541.117, 663.652 545.566 C 665.572 551.657, 664.798 556.036, 660.734 562.067 C 653.895 572.215, 642.289 573.448, 629 565.440 C 622.367 561.443, 617.248 556.172, 605.264 541 C 600.268 534.675, 594.806 528.194, 593.127 526.598 L 590.074 523.697 601.076 519.887 C 628.790 510.290, 640.595 501.723, 653.282 482 C 663.290 466.441, 667.042 456.706, 669.966 438.717 C 673.231 418.634, 674.072 414.777, 676 411.054 C 678.518 406.194, 687.851 397.244, 693.689 394.090 C 697.458 392.055, 698.500 390.951, 698.500 388.996 C 698.500 386.904, 697.967 386.449, 695.208 386.184 C 688.620 385.550, 682.018 388.791, 674.389 396.404 C 663.849 406.922, 661.727 411.710, 655.950 438 C 652.739 452.612, 653.055 452.314, 649.884 443.693 C 648.320 439.439, 645.857 433.380, 644.413 430.229 C 634.126 407.795, 631.753 395.544, 635.918 386.373 C 636.948 384.104, 638.185 382.004, 638.665 381.707 C 639.145 381.410, 641.319 381.991, 643.495 382.998 C 650.063 386.035, 652.959 382.689, 649.520 376.039 C 645.546 368.354, 636.830 366.576, 630.476 372.155 C 628.499 373.891, 625.982 377.075, 624.882 379.231 C 622.283 384.326, 620.690 398.594, 621.811 406.750 L 622.669 413 617.785 413 C 612.235 413, 608.669 414.562, 604.864 418.661 C 600.752 423.090, 599 427.441, 599 433.222 C 599 437.705, 599.492 439.141, 602.118 442.327 C 604.517 445.237, 605.843 446.040, 607.868 445.805 C 610.420 445.509, 610.492 445.318, 610.223 439.500 C 609.441 422.594, 625.116 421.263, 632.589 437.600 C 635.291 443.509, 638 455.176, 638 460.909 C 638 466.122, 634.620 475.478, 630.482 481.718 C 625.267 489.583, 615.904 496.284, 603.589 500.966 C 601.206 501.872, 601.128 501.793, 602.040 499.395 C 603.457 495.668, 603.206 483.835, 601.614 479.324 C 600.852 477.163, 598.685 472.944, 596.799 469.948 C 590.442 459.851, 589.558 457.178, 589.178 446.906 C 588.895 439.283, 589.258 435.850, 590.942 430.196 C 592.107 426.283, 593.497 422.811, 594.030 422.481 C 595.626 421.495, 595.128 418.139, 593.236 417.126 C 589.382 415.064, 582.291 420.561, 578.071 428.884 C 575.206 434.532, 573.825 442.735, 574.177 452 C 574.468 459.671, 574.293 460.668, 572.377 462.223 C 567.769 465.962, 565.124 477.724, 568.200 480.800 C 570.258 482.858, 573.590 482.195, 574.827 479.480 C 576.471 475.873, 580.278 474.671, 584.488 476.431 C 587.241 477.581, 588.016 478.568, 588.597 481.664 C 588.990 483.762, 588.824 487.808, 588.227 490.654 C 585.590 503.224, 577.068 509.265, 562.060 509.203 C 556.794 509.181, 551.792 508.549, 549.061 507.561 C 541.339 504.768, 525.958 502, 518.154 502 C 513.587 502, 507.654 502.824, 503.064 504.095 C 495.379 506.224, 481.518 512.937, 477.958 516.254 C 475.627 518.425, 475.562 517.779, 477.400 510.722 C 479.103 504.186, 484.886 492.477, 488.581 488.086 C 492.498 483.431, 503.664 476.194, 518.533 468.673 C 539.115 458.262, 548.763 451.687, 562.562 438.670 C 571.312 430.416, 573.164 428.051, 577.665 419.381 C 584.002 407.173, 587.807 396.668, 588.598 389.198 C 590.857 367.856, 595.477 351.169, 602.635 338.500 C 607.718 329.505, 608.785 323.580, 605.673 321.639 C 599.980 318.089, 578.350 355.127, 575.972 372.500 C 574.854 380.662, 572.184 392.285, 570.501 396.316 L 569.325 399.132 564.278 390.316 C 556.762 377.186, 556.316 376.116, 555.112 368.317 C 553.909 360.528, 554.114 359.135, 559.607 337.705 C 562.236 327.451, 562.311 326.532, 561.111 319.390 C 559.191 307.960, 554.232 298.259, 550.060 297.768 C 546.177 297.311, 545.440 299.899, 546.791 309.244 C 548.946 324.149, 547.983 342, 545.024 342 C 544.595 342, 542.629 341.325, 540.654 340.500 C 536.594 338.803, 528.381 338.524, 524.617 339.955 C 513.898 344.031, 506.950 360.765, 511.478 371.601 C 512.732 374.602, 513.374 375.089, 515.728 374.819 C 518.336 374.519, 518.546 374.124, 519.284 368.134 C 520.608 357.390, 523.534 354, 531.483 354 C 533.328 354, 535.565 354.280, 536.455 354.621 C 539.531 355.801, 541.289 361.197, 541.791 370.995 C 542.254 380.035, 542.569 381.130, 548.222 393.372 C 555.522 409.178, 557.045 416.015, 554.640 422.178 C 550.559 432.636, 536.851 442.730, 504 459.466 C 497.675 462.688, 488.788 467.716, 484.250 470.640 C 474.766 476.750, 475.284 477.447, 477.512 461.577 C 481.491 433.228, 492.190 410.874, 502.905 408.521 C 511.664 406.597, 515.799 418.615, 510.500 430.596 C 507.396 437.615, 507.291 440.640, 510.120 441.538 C 512.928 442.429, 516.614 439.662, 520.759 433.552 C 527.054 424.271, 528.469 412.818, 524.335 404.594 C 519.855 395.682, 509.645 390.002, 500.681 391.435 C 491.909 392.838, 481.624 400.967, 476.877 410.250 C 474.522 414.856, 473.880 414.997, 474.603 410.750 C 479.006 384.885, 488.062 365.650, 507.445 341 C 518.095 327.455, 528.764 310.855, 531.618 303.390 C 534.140 296.792, 534.274 295.446, 534.765 271.676 L 535.278 246.853 532.015 247.176 C 529.133 247.462, 528.526 248.077, 526.820 252.435 C 524.310 258.848, 522.330 270.025, 521.511 282.410 C 521.151 287.860, 520.181 294.006, 519.356 296.067 L 517.857 299.815 514.678 296.346 C 507.233 288.222, 491.396 292.044, 489.446 302.434 C 488.174 309.218, 493.224 312.527, 497.179 307.500 C 498.260 306.125, 500.001 305, 501.047 305 C 503.063 305, 506.016 309.611, 505.978 312.700 C 505.931 316.542, 501.846 322.987, 491.845 335 C 486.121 341.875, 479.506 350.200, 477.144 353.500 L 472.850 359.500 473.242 336 C 473.617 313.497, 473.748 312.182, 476.332 305 C 477.817 300.875, 479.633 296.150, 480.369 294.500 C 481.105 292.850, 482.762 288.575, 484.050 285 C 485.338 281.425, 487.673 276.310, 489.239 273.633 C 494.604 264.461, 497.844 244.013, 494.608 239.750 C 493.053 237.702, 490.647 237.476, 489.284 239.250 C 488.756 239.938, 486.840 244.676, 485.028 249.781 C 483.215 254.886, 480.175 261.636, 478.273 264.781 C 471.468 276.028, 468.593 281.646, 464.481 291.724 C 459.762 303.290, 460.425 303.413, 455.166 290 C 453.549 285.875, 450.372 279.350, 448.107 275.500 C 442.150 265.374, 434.333 249.064, 433.490 245 C 432.443 239.958, 431.194 238, 429.022 238 C 427.972 238, 426.452 238.944, 425.644 240.098 M 294.593 259.849 C 294.305 260.316, 293.535 264.028, 292.882 268.099 C 292.229 272.169, 291.583 275.644, 291.445 275.819 C 291.307 275.995, 290.311 275.586, 289.230 274.911 C 285.791 272.764, 283.783 274.448, 284.164 279.161 L 284.500 283.318 278.750 285.242 C 273.840 286.886, 273 287.524, 273 289.615 C 273 290.961, 273.563 292.236, 274.250 292.448 C 274.938 292.660, 277.589 293.588, 280.142 294.511 C 284.747 296.176, 284.780 296.220, 284.263 300.076 C 283.848 303.171, 284.101 304.101, 285.503 304.640 C 286.472 305.011, 288.149 304.763, 289.230 304.089 C 290.311 303.414, 291.290 303.005, 291.406 303.181 C 291.523 303.356, 292.162 306.819, 292.827 310.875 C 294.239 319.486, 294.479 320, 297.084 320 C 299.473 320, 300.528 317.437, 301.370 309.581 C 301.718 306.326, 302.166 303.501, 302.363 303.303 C 302.561 303.106, 303.835 303.367, 305.195 303.884 C 308.759 305.239, 310.174 303.907, 309.812 299.535 C 309.501 295.772, 309.510 295.762, 315 294.023 C 323.396 291.363, 323.055 287.350, 314.231 284.977 C 308.887 283.540, 307.325 282.535, 308.913 281.554 C 309.511 281.184, 310 279.544, 310 277.910 C 310 274.432, 307.674 273.098, 304.770 274.911 C 303.689 275.586, 302.639 275.972, 302.435 275.768 C 302.231 275.564, 301.760 272.721, 301.387 269.449 C 300.481 261.489, 299.456 259, 297.084 259 C 296.003 259, 294.882 259.382, 294.593 259.849 M 620.525 260.250 C 620.299 260.938, 619.659 264.591, 619.104 268.369 C 618.549 272.147, 617.893 275.441, 617.645 275.688 C 617.397 275.936, 616.311 275.586, 615.230 274.911 C 614.149 274.237, 612.480 273.986, 611.521 274.354 C 609.862 274.990, 609.737 277.222, 611.101 281.857 C 611.365 282.754, 609.806 283.712, 606.500 284.686 C 596.708 287.570, 596.510 291.482, 606.015 294.270 C 611.443 295.862, 611.946 296.232, 611.024 297.954 C 608.474 302.720, 611.156 306.632, 615.230 304.089 C 616.311 303.414, 617.403 303.070, 617.658 303.324 C 617.912 303.579, 618.549 306.873, 619.072 310.644 C 620.292 319.439, 620.527 320, 622.993 320 C 625.373 320, 626.453 317.681, 627.442 310.452 C 628.229 304.696, 629.376 302.182, 630.434 303.893 C 630.810 304.502, 632.186 305, 633.492 305 C 636.305 305, 637.608 302.004, 636.055 299.104 C 634.541 296.274, 634.495 296.324, 640.250 294.463 C 649.706 291.404, 650.460 287.890, 642.185 285.447 C 634.816 283.271, 634.915 283.353, 636.037 280.404 C 637.933 275.416, 634.557 271.843, 631.158 275.242 C 629.361 277.039, 628.485 275.184, 626.981 266.389 C 625.823 259.617, 625.517 259, 623.327 259 C 622.013 259, 620.752 259.563, 620.525 260.250 M 295.009 268.250 C 294.365 272.238, 293.632 276.547, 293.380 277.826 L 292.924 280.152 289.338 278.037 L 285.752 275.921 286.295 278.210 C 286.594 279.470, 287.127 281.417, 287.480 282.538 C 288.042 284.320, 287.340 284.826, 281.883 286.571 C 278.452 287.669, 275.499 289.002, 275.322 289.534 C 275.145 290.065, 277.812 291.373, 281.250 292.439 C 284.687 293.506, 287.654 294.484, 287.842 294.614 C 288.030 294.744, 287.606 296.448, 286.900 298.400 C 285.253 302.955, 286.133 303.753, 289.870 301.093 C 293.308 298.644, 293.512 298.906, 294.484 307 C 295.394 314.584, 296.186 318, 297.032 318 C 297.947 318, 298.591 315.079, 299.508 306.766 C 299.855 303.612, 300.545 300.781, 301.041 300.475 C 301.536 300.169, 303.365 300.655, 305.105 301.555 C 308.250 303.180, 308.266 303.176, 307.716 300.845 C 307.411 299.555, 306.879 297.600, 306.534 296.500 C 305.986 294.753, 306.735 294.252, 312.465 292.534 C 316.072 291.453, 318.870 290.111, 318.684 289.552 C 318.497 288.992, 315.711 287.733, 312.491 286.753 C 309.271 285.772, 306.453 284.786, 306.227 284.560 C 306.001 284.334, 306.394 282.552, 307.100 280.600 C 308.747 276.045, 307.867 275.247, 304.130 277.907 C 301.353 279.885, 301.107 279.910, 300.595 278.266 C 300.103 276.691, 298.070 263.646, 298.020 261.750 C 298.009 261.337, 297.591 261, 297.091 261 C 296.591 261, 295.654 264.262, 295.009 268.250 M 621.052 270.500 C 620.334 275.725, 619.467 279.990, 619.124 279.978 C 618.781 279.966, 617.375 279.076, 616 278 C 614.625 276.924, 613.163 276.034, 612.750 276.022 C 611.479 275.985, 611.919 278.946, 613.554 281.443 C 615.409 284.273, 615.026 284.604, 607.185 286.931 C 604.136 287.837, 601.501 289.010, 601.330 289.539 C 601.159 290.067, 603.827 291.356, 607.259 292.402 C 615.484 294.909, 615.165 294.585, 613.287 298.525 C 611.204 302.892, 612.075 303.795, 615.805 301.139 C 617.412 299.995, 618.982 299.315, 619.294 299.628 C 619.607 299.940, 620.430 304.202, 621.123 309.098 C 621.816 313.994, 622.709 318, 623.108 318 C 623.939 318, 625.965 309.243, 626.070 305.201 C 626.109 303.715, 626.462 301.684, 626.855 300.687 C 627.532 298.972, 627.717 298.989, 630.275 301.002 C 633.945 303.889, 635.232 302.799, 633.381 298.370 C 632.557 296.398, 632.022 294.689, 632.191 294.573 C 632.361 294.457, 635.313 293.534, 638.750 292.522 C 642.188 291.511, 645 290.186, 645 289.579 C 645 288.972, 642.075 287.637, 638.500 286.614 C 634.925 285.590, 632 284.638, 632 284.498 C 632 284.358, 632.657 282.671, 633.460 280.749 C 635.328 276.279, 634.647 275.686, 630.474 278.148 L 627.115 280.130 626.574 276.815 C 626.276 274.992, 625.575 270.830, 625.016 267.566 C 624.457 264.303, 624 261.490, 624 261.316 C 624 261.142, 623.630 261, 623.178 261 C 622.726 261, 621.769 265.275, 621.052 270.500 M 193.576 354.762 C 193.268 355.731, 192.845 357.868, 192.635 359.512 C 191.981 364.633, 190.798 370, 190.323 370 C 190.073 370, 188.969 369.519, 187.870 368.931 C 184.715 367.242, 182.674 369.560, 183.388 374.024 L 183.967 377.645 178.483 379.374 C 173.562 380.925, 173 381.388, 173 383.893 C 173 386.428, 173.537 386.846, 178.868 388.460 C 184.648 390.210, 184.721 390.279, 183.705 392.971 C 183.137 394.475, 182.957 396.446, 183.305 397.353 C 184.016 399.205, 188.034 399.566, 189.675 397.925 C 190.787 396.813, 191.607 399.720, 192.631 408.404 C 193.243 413.593, 195.024 415.593, 197.741 414.139 C 199.203 413.356, 199.890 411.591, 200.391 407.333 C 201.441 398.398, 202.001 396.756, 203.560 398.050 C 205.793 399.903, 209.460 398.783, 209.835 396.135 C 210.019 394.834, 209.681 393.281, 209.085 392.685 C 207.176 390.776, 207.883 390.090, 213.416 388.481 C 222.618 385.806, 223.236 382.038, 214.880 379.557 C 208.160 377.561, 208.016 377.418, 209.306 373.999 C 210.242 371.522, 210.151 370.722, 208.778 369.349 C 207.249 367.820, 206.929 367.817, 204.658 369.304 C 201.837 371.153, 201.727 370.947, 200.488 361.500 C 200.127 358.750, 199.614 355.712, 199.349 354.750 C 198.707 352.428, 194.314 352.437, 193.576 354.762 M 722.331 353.704 C 721.688 353.929, 720.607 357.350, 719.929 361.306 C 719.251 365.263, 718.363 368.879, 717.955 369.343 C 717.548 369.806, 716.214 369.650, 714.991 368.995 C 713.181 368.027, 712.476 368.096, 711.206 369.365 C 709.922 370.650, 709.856 371.389, 710.835 373.538 C 712.378 376.923, 711.945 377.475, 706.576 378.979 C 701.271 380.464, 698.187 383.316, 699.793 385.251 C 700.381 385.959, 703.375 387.393, 706.445 388.437 C 711.320 390.094, 711.944 390.599, 711.364 392.417 C 710.244 395.931, 710.429 397.177, 712.247 398.354 C 713.558 399.204, 714.477 399.183, 715.938 398.271 C 718.226 396.842, 718.331 397.068, 720.047 407.178 C 721.719 417.033, 726.135 417.608, 727.652 408.168 C 728.065 405.601, 728.480 403.163, 728.576 402.750 C 728.672 402.337, 728.806 400.785, 728.875 399.300 C 728.972 397.200, 729.267 396.867, 730.200 397.800 C 731.946 399.546, 735.960 399.269, 736.695 397.353 C 737.043 396.446, 736.863 394.475, 736.295 392.971 C 735.279 390.279, 735.352 390.210, 741.132 388.460 C 746.416 386.860, 747 386.413, 747 383.963 C 747 381.167, 745.149 379.921, 738.783 378.434 C 736.210 377.833, 736.098 377.567, 736.669 373.400 C 737.127 370.054, 736.940 368.972, 735.886 368.882 C 733.801 368.703, 733.666 368.719, 731.369 369.414 C 729.417 370.005, 729.178 369.578, 728.524 364.345 C 727.402 355.366, 725.740 352.511, 722.331 353.704 M 195.717 356.516 C 195.406 357.607, 194.594 361.875, 193.912 366 C 193.231 370.125, 192.551 373.658, 192.401 373.852 C 192.252 374.046, 191.100 373.483, 189.842 372.602 C 186.735 370.426, 184.576 370.500, 185.522 372.750 C 187.809 378.192, 187.527 378.661, 180.588 380.971 C 176.957 382.179, 174.219 383.545, 174.504 384.006 C 174.789 384.467, 177.920 385.809, 181.463 386.988 L 187.905 389.131 186.273 392.553 C 184.230 396.838, 184.937 397.601, 189 395.500 C 190.752 394.594, 192.295 393.998, 192.428 394.176 C 192.561 394.354, 193.264 397.875, 193.991 402 C 194.717 406.125, 195.638 410.136, 196.037 410.913 C 196.950 412.693, 197.425 411.154, 199.016 401.250 C 200.215 393.787, 201.011 392.936, 204.397 395.500 C 207.217 397.634, 208.209 396.304, 206.402 392.811 C 204.509 389.149, 204.903 388.754, 212.804 386.404 C 215.722 385.536, 217.960 384.380, 217.778 383.833 C 217.596 383.287, 214.759 381.935, 211.473 380.828 C 208.188 379.722, 205.382 378.702, 205.237 378.562 C 205.092 378.422, 205.637 376.720, 206.447 374.781 C 208.294 370.361, 207.514 369.498, 203.959 372.030 C 202.437 373.113, 200.985 374, 200.733 374 C 200.481 374, 199.716 370.538, 199.033 366.306 C 198.351 362.074, 197.453 357.694, 197.038 356.572 C 196.293 354.559, 196.276 354.558, 195.717 356.516 M 722.642 358.292 C 722.325 359.552, 721.770 363.104, 721.408 366.185 C 720.474 374.131, 719.878 374.761, 715.942 371.959 L 712.677 369.634 713.268 372.567 C 713.594 374.180, 714.131 376.199, 714.462 377.054 C 714.924 378.247, 713.546 379.144, 708.532 380.914 C 704.939 382.182, 702 383.538, 702 383.927 C 702 384.316, 704.362 385.392, 707.250 386.318 C 714.933 388.782, 715.190 389.035, 713.783 392.763 C 712.280 396.745, 713.115 397.626, 716.369 395.494 C 719.487 393.451, 721 394.235, 721 397.892 C 721 402.209, 723.178 412, 724.138 412 C 724.612 412, 725.029 410.762, 725.064 409.250 C 725.150 405.592, 727.348 395.319, 728.234 394.432 C 728.621 394.046, 730.116 394.501, 731.556 395.444 C 735.013 397.710, 735.727 396.748, 733.717 392.533 L 732.076 389.091 739.054 386.843 C 742.892 385.607, 745.893 384.178, 745.722 383.667 C 745.552 383.156, 742.620 381.881, 739.206 380.833 C 732.598 378.804, 732.357 378.504, 734.162 374.543 C 735.706 371.156, 734.826 370.522, 731.190 372.402 C 727.617 374.250, 727.699 374.387, 725.897 363.657 C 724.576 355.796, 723.651 354.271, 722.642 358.292 M 445 924.008 C 442.525 924.432, 438.700 925.064, 436.500 925.410 C 418.984 928.170, 404.543 940.671, 409.079 949.148 L 410.292 951.413 412.969 948.207 C 416.243 944.284, 417.004 944.198, 416.985 947.750 C 416.965 951.566, 414.921 955.228, 411.980 956.716 L 409.500 957.971 412.177 957.985 C 416.294 958.008, 419.165 953.704, 418.797 948.065 C 418.421 942.310, 415.789 941.342, 412.197 945.637 L 409.803 948.500 410.447 945.500 C 411.973 938.387, 419.873 932.389, 432.371 928.856 C 444.408 925.452, 470.605 924.991, 483.818 927.949 C 498.329 931.198, 508.022 937.269, 509.509 944.042 C 510.289 947.592, 509.221 949.561, 508.341 946.195 C 507.733 943.871, 503.946 942.297, 501.942 943.536 C 500.212 944.605, 501.344 953.618, 503.509 956.010 C 504.500 957.105, 506.478 957.971, 507.905 957.937 C 510.409 957.875, 510.423 957.842, 508.302 956.988 C 505.700 955.940, 503 951.135, 503 947.550 C 503 944.210, 503.798 944.333, 507 948.169 C 510.207 952.011, 512 951.282, 512 946.135 C 512 937.537, 499.042 927.857, 484.471 925.571 C 482.287 925.228, 477.800 924.513, 474.500 923.981 C 467.574 922.866, 451.568 922.880, 445 924.008 M 362.500 926.634 C 336.024 929.583, 322.193 933.691, 314.750 940.816 C 312.204 943.254, 311 945.285, 311 947.144 C 311 951.321, 312.976 951.711, 316.149 948.160 C 319.539 944.365, 321 944.153, 321 947.453 C 321 951.447, 318.757 955.196, 315.524 956.604 L 312.500 957.922 315.161 957.961 C 320.571 958.040, 325.475 947.875, 321.800 944.200 C 319.987 942.387, 317.211 942.760, 316.529 944.908 C 315.821 947.141, 313 948.538, 313 946.656 C 313 944.983, 317.669 940.647, 321.608 938.662 C 325.226 936.838, 335.662 933.147, 339.117 932.468 C 349.639 930.402, 357.396 929, 358.308 929 C 358.906 929, 357.504 930.872, 355.193 933.160 C 348.829 939.461, 347.210 949.094, 351.433 955.538 C 352.933 957.827, 353.630 958, 361.349 958 C 368.806 958, 369.880 957.757, 371.893 955.614 C 373.584 953.813, 374.057 952.280, 373.817 949.364 C 373.540 945.986, 373.154 945.460, 370.750 945.184 C 369.238 945.010, 368 945.347, 368 945.934 C 368 946.520, 367.100 947, 366 947 C 364.900 947, 364 946.585, 364 946.077 C 364 944.075, 369.502 938.779, 373.880 936.569 C 378.601 934.185, 391.894 931, 397.121 931 L 400.028 931 397.400 934.972 C 395.055 938.515, 394.814 939.699, 395.166 945.923 C 395.485 951.580, 396.014 953.386, 397.954 955.451 C 399.271 956.853, 401.270 958, 402.397 958 C 404.384 958, 404.379 957.954, 402.217 956.439 C 398.935 954.141, 397 949.706, 397 944.484 C 397 939.162, 398.037 936.771, 402.302 932.265 C 403.986 930.486, 405.169 928.853, 404.932 928.636 C 404.694 928.420, 400 928.611, 394.500 929.061 C 376.366 930.546, 364.039 936.556, 362.409 944.706 C 361.902 947.238, 362.190 948.031, 363.961 948.979 C 365.696 949.908, 366.618 949.825, 368.532 948.571 C 371.765 946.453, 372 946.545, 372 949.927 C 372 954.485, 368.049 957, 360.888 957 C 355.829 957, 354.836 956.679, 353.477 954.606 C 352.615 953.289, 351.653 950.638, 351.341 948.714 C 350.388 942.844, 352.565 938.552, 359.809 932.014 C 363.474 928.706, 366.253 926.067, 365.986 926.150 C 365.719 926.232, 364.150 926.450, 362.500 926.634 M 555.040 926.923 C 555.062 927.240, 557.305 929.255, 560.024 931.401 C 566.505 936.514, 569.477 942.501, 568.624 948.724 C 567.942 953.704, 566.675 955.776, 563.535 957.048 C 561.710 957.788, 561.777 957.880, 564.177 957.937 C 570.995 958.098, 573.639 945.217, 568.394 937.390 C 566.961 935.250, 564.598 932.504, 563.144 931.286 C 559.974 928.631, 560.282 928.597, 570.500 930.466 C 582.523 932.666, 583.148 932.814, 589.039 934.850 C 601.492 939.153, 607.059 942.918, 606.964 946.973 C 606.940 947.984, 606.140 947.537, 604.598 945.651 C 601.198 941.495, 598.584 942.361, 598.192 947.773 C 597.855 952.421, 600.836 958, 603.657 958 C 604.787 958, 604.512 957.209, 602.589 954.923 C 600.907 952.925, 600 950.647, 600 948.423 C 600 946.540, 600.231 945, 600.514 945 C 600.797 945, 602.299 946.422, 603.851 948.160 C 605.494 949.999, 607.160 951.019, 607.837 950.601 C 609.673 949.466, 609.194 944.517, 606.975 941.695 C 602.899 936.513, 585.343 930.062, 570 928.109 C 557.055 926.461, 554.997 926.297, 555.040 926.923 M 516 928.837 C 516 929.043, 517.430 931.018, 519.178 933.224 C 524.681 940.173, 524.114 953.242, 518.169 956.470 C 516.365 957.450, 516.041 957.933, 517.168 957.960 C 522.432 958.086, 525 953.736, 525 944.689 C 525 939.522, 524.521 937.574, 522.530 934.640 L 520.060 931 522.942 931 C 528.762 931, 541.290 934.006, 546.762 936.715 C 552.693 939.651, 557.213 945.187, 555.268 947.132 C 554.606 947.794, 553.723 947.580, 552.637 946.495 C 551.739 945.596, 549.990 945.004, 548.752 945.180 C 546.928 945.439, 546.440 946.235, 546.183 949.364 C 545.736 954.808, 548.855 958.038, 554.424 957.898 L 558.500 957.795 555.209 957.016 C 550.715 955.951, 548 953.250, 548 949.845 C 548 946.549, 548.245 946.459, 551.468 948.571 C 554.082 950.284, 557.262 949.366, 558.326 946.592 C 559.094 944.591, 555.184 939.041, 551.040 936.248 C 545.898 932.783, 532.567 929.133, 523.750 928.775 C 519.487 928.602, 516 928.630, 516 928.837" stroke="none" fill="#1d1d1d" fill-rule="evenodd"/><path d="M 458.082 117.927 C 456.804 125.079, 456.209 128.298, 456.077 128.776 C 456.034 128.927, 454.608 128.332, 452.907 127.452 C 449.178 125.523, 448.284 126.132, 449.838 129.543 C 451.609 133.430, 451.392 133.742, 445.750 135.420 C 437.602 137.844, 437.013 138.559, 441.579 140.480 C 443.735 141.387, 446.738 142.382, 448.250 142.690 C 451.364 143.324, 451.419 143.499, 449.884 147.902 C 448.422 152.097, 449.223 152.689, 452.858 150.101 L 455.831 147.984 456.964 153.242 C 457.587 156.134, 458.361 160.412, 458.684 162.750 C 459.007 165.088, 459.578 167, 459.953 167 C 460.327 167, 461.431 162.764, 462.406 157.587 L 464.179 148.173 467.632 150.211 C 471.885 152.720, 472.640 152.138, 470.500 148 C 469.594 146.248, 469.144 144.522, 469.501 144.165 C 469.858 143.809, 472.698 142.613, 475.813 141.508 C 478.928 140.404, 481.370 139.050, 481.238 138.500 C 481.107 137.950, 478.413 136.651, 475.250 135.613 C 472.087 134.575, 469.307 133.557, 469.071 133.351 C 468.835 133.144, 469.390 131.406, 470.305 129.487 C 472.136 125.648, 471.423 125.213, 467.027 127.486 C 463.775 129.168, 464.349 130.315, 461.908 117.250 C 461.265 113.813, 460.420 111, 460.030 111 C 459.640 111, 458.763 114.117, 458.082 117.927 M 392.717 174.177 C 392.422 175.455, 391.617 179.767, 390.929 183.759 L 389.676 191.018 387.279 189.447 C 385.960 188.583, 384.236 188.017, 383.446 188.188 C 382.218 188.455, 382.234 188.928, 383.562 191.472 C 384.977 194.186, 384.968 194.550, 383.456 195.656 C 382.546 196.321, 379.595 197.431, 376.900 198.122 C 374.205 198.813, 372.004 199.856, 372.009 200.439 C 372.013 201.023, 374.721 202.343, 378.026 203.373 C 381.330 204.404, 384.249 205.594, 384.512 206.019 C 384.774 206.444, 384.340 208.044, 383.546 209.574 C 381.517 213.486, 382.601 214.410, 386.439 212.038 L 389.719 210.011 391.015 217.755 C 391.728 222.015, 392.647 226.400, 393.056 227.500 C 393.984 229.996, 394.390 228.950, 395.968 220 C 397.849 209.330, 397.659 209.621, 401.130 212.093 C 404.857 214.746, 405.539 214.132, 403.900 209.600 C 403.194 207.648, 402.815 205.876, 403.058 205.662 C 403.301 205.449, 406.087 204.425, 409.250 203.387 C 412.413 202.349, 415.113 201.076, 415.250 200.557 C 415.387 200.038, 412.575 198.708, 409 197.601 C 405.425 196.495, 402.368 195.513, 402.207 195.419 C 402.046 195.325, 402.689 193.623, 403.636 191.636 C 405.799 187.100, 404.826 186.013, 401.080 188.783 C 397.697 191.284, 397.755 191.373, 395.979 181 C 394.570 172.765, 393.540 170.612, 392.717 174.177 M 525.676 173.402 C 525.380 174.173, 524.605 178.452, 523.953 182.911 L 522.767 191.019 519.537 189.023 C 515.489 186.521, 514.671 187.277, 516.553 191.781 C 517.363 193.720, 517.908 195.396, 517.763 195.506 C 517.618 195.615, 514.688 196.531, 511.250 197.541 C 507.813 198.552, 505 199.859, 505 200.446 C 505 201.033, 506.688 202.040, 508.750 202.685 C 518.207 205.640, 518.090 205.540, 516.505 209.335 C 514.675 213.714, 515.515 214.463, 519.495 212.003 L 522.683 210.033 523.917 218.330 C 525.223 227.104, 526.498 230.669, 527.366 227.972 C 527.627 227.162, 528.381 222.787, 529.042 218.250 C 529.704 213.713, 530.433 210, 530.663 210 C 530.893 210, 532.407 210.981, 534.028 212.179 C 537.797 214.965, 538.812 213.926, 536.683 209.461 L 535.007 205.948 537.754 204.848 C 539.264 204.243, 542.214 203.218, 544.308 202.570 C 546.402 201.923, 548.116 200.991, 548.116 200.500 C 548.116 200.009, 546.402 199.077, 544.308 198.430 C 542.214 197.782, 539.248 196.751, 537.718 196.139 C 535.001 195.051, 534.972 194.955, 536.468 192.062 C 537.311 190.433, 538 188.641, 538 188.081 C 538 186.827, 535.111 187.779, 532.744 189.813 C 531.778 190.642, 530.834 191.136, 530.646 190.911 C 529.956 190.081, 528 178.565, 528 175.333 C 528 171.953, 526.659 170.839, 525.676 173.402 M 427.667 240.667 C 426.668 241.666, 426.864 252.983, 427.986 259.114 C 428.529 262.076, 430.765 268.100, 432.955 272.500 C 437.110 280.847, 442.443 294.308, 446.570 306.861 C 449.234 314.966, 449.743 323.429, 449.198 350.500 C 448.906 364.963, 448.834 365.411, 447.198 363.015 C 444.624 359.248, 429.764 339.570, 429.063 339 C 427.481 337.714, 418.001 326.070, 415.643 322.518 C 413.563 319.385, 413 317.325, 413 312.857 C 413 307.763, 413.312 306.915, 416.027 304.631 C 419.477 301.728, 421.441 302.004, 424.721 305.853 C 427.789 309.454, 429.758 307.602, 428.431 302.365 C 427.048 296.907, 423.196 294.500, 415.845 294.500 C 410.377 294.500, 409.585 294.781, 407.043 297.626 C 405.506 299.346, 404.001 301.371, 403.698 302.126 C 402.822 304.312, 399.501 299.506, 398.177 294.136 C 397.548 291.586, 396.560 283.650, 395.980 276.500 C 395.400 269.350, 394.660 262.600, 394.336 261.500 C 392.275 254.523, 389.665 249, 388.428 249 C 387.247 249, 387 251.914, 387 265.841 C 387 300.446, 389.048 305.989, 414.084 339.135 C 421.681 349.193, 424.634 353.360, 431 363 C 439.488 375.854, 448.006 403.038, 447.995 417.239 L 447.991 423.500 444.745 417.324 C 438.029 404.542, 432.129 398.238, 424.252 395.427 C 416.156 392.537, 407.310 394.324, 401.963 399.929 C 392.991 409.334, 394.339 426.256, 404.871 436.420 C 409.937 441.309, 411.036 439.746, 408.052 431.895 C 403.864 420.876, 406.139 408.007, 412.560 406.396 C 426.914 402.793, 441.356 429.281, 445.519 466.847 C 446.286 473.763, 446.751 479.582, 446.554 479.779 C 446.357 479.976, 441.764 477.258, 436.348 473.739 C 430.932 470.219, 422.675 465.378, 418 462.979 C 386.988 447.070, 372.012 436.698, 365.026 426.290 C 362.014 421.802, 361.845 421.091, 362.352 415 C 362.928 408.085, 365.108 401.943, 372.095 387.552 C 376.090 379.323, 376.485 377.797, 377.012 368.552 C 377.656 357.246, 379.144 353.843, 384.215 352.075 C 388.925 350.433, 392.378 350.777, 396.001 353.250 C 400.581 356.377, 403 361.382, 403 367.734 C 403 371.786, 403.351 373, 404.525 373 C 407.955 373, 409.139 362.480, 406.539 355.110 C 402.193 342.791, 391.882 338.477, 378.234 343.267 C 375.336 344.284, 374.718 344.162, 372.734 342.180 C 370.625 340.072, 370.503 339.151, 370.557 325.724 C 370.588 317.901, 370.988 308.688, 371.446 305.250 C 372.562 296.862, 369.959 297.138, 365.529 305.878 C 359.799 317.181, 359.401 327.125, 364.064 342.500 C 366.862 351.725, 367.395 355.033, 367.366 363 C 367.328 373.610, 365.874 378.113, 358.651 390 C 356.479 393.575, 354.045 398.064, 353.243 399.976 L 351.784 403.452 349.907 401.133 C 347.414 398.054, 344.407 387.691, 342.615 376 C 341.001 365.472, 339.839 361.780, 334.905 351.500 C 329.032 339.265, 318.481 324, 315.896 324 C 314.339 324, 314.933 329.377, 316.834 332.500 C 326.203 347.884, 331.026 362.425, 332.960 381.124 C 334.217 393.274, 337.319 403.675, 343.357 415.987 C 347.879 425.209, 349.649 427.622, 358.018 435.987 C 369.367 447.329, 384.624 457.792, 404 467.520 C 427.032 479.084, 434.105 485.091, 440.461 498.486 C 443.460 504.805, 448.397 521.936, 447.483 522.850 C 447.290 523.044, 445.864 522.003, 444.315 520.537 C 439.924 516.380, 428.838 510.100, 420.807 507.220 C 414.434 504.934, 411.966 504.603, 401.500 504.629 C 391.481 504.653, 387.849 505.118, 379.500 507.449 C 365.761 511.284, 358.892 512.187, 351.964 511.072 C 341.188 509.336, 334.411 504.121, 330.968 494.913 C 326.780 483.715, 329.789 474.720, 338.179 473.358 C 341.279 472.855, 342.274 473.253, 345.726 476.372 C 347.913 478.347, 349.995 479.672, 350.351 479.315 C 351.546 478.120, 351.016 470.932, 349.520 468.039 C 348.706 466.465, 347.018 464.349, 345.770 463.338 C 343.649 461.621, 343.499 460.743, 343.490 450 C 343.477 436.815, 342.283 431.838, 337.685 425.809 C 334.233 421.283, 329.612 418.054, 328.368 419.299 C 327.958 419.708, 328.642 422.141, 329.887 424.704 C 331.197 427.402, 332.605 433.056, 333.231 438.136 C 334.683 449.934, 333.379 457.481, 328.415 466 C 319.855 480.691, 318.999 482.868, 319.022 489.891 C 319.036 494.173, 319.703 497.951, 320.915 500.621 L 322.786 504.741 319.643 503.975 C 308.785 501.330, 299.977 495.978, 291.461 486.851 C 285.014 479.941, 281.323 472.349, 280.311 463.920 C 279.115 453.949, 284.195 435.562, 289.766 429.699 C 295.933 423.209, 302.905 422.157, 308.228 426.912 C 311.325 429.680, 311.488 430.178, 311.494 436.911 C 311.499 442.874, 311.766 443.998, 313.177 443.999 C 316.201 444.001, 319 439.161, 319 433.930 C 319 428.004, 317.673 424.346, 314.186 420.661 C 310.128 416.372, 306.708 415, 300.074 415 L 294.050 415 295.025 412.435 C 296.614 408.255, 296.226 388.005, 294.459 382.928 C 290.617 371.885, 281.269 367.577, 274.923 373.923 C 273.240 375.606, 272 377.914, 272 379.364 C 272 382.431, 273.366 383.468, 274.928 381.587 C 276.679 379.477, 280.959 378.722, 282.758 380.207 C 285.609 382.559, 288.325 390.264, 288.326 396 C 288.327 404.015, 286.458 410.680, 279.492 427.500 C 272.110 445.326, 270.970 448.689, 270.033 455.402 L 269.322 460.500 267.276 456 C 265.342 451.746, 263.292 443.831, 259.379 425.500 C 258.440 421.100, 256.346 414.827, 254.726 411.560 C 250.642 403.327, 241.915 394.396, 234.500 390.862 C 224.063 385.887, 219.277 387.709, 228.750 393.051 C 235.694 396.967, 242.976 404.072, 245.882 409.768 C 248.264 414.438, 250.477 423.428, 251.477 432.500 C 253.664 452.347, 261.155 470.918, 273.777 487.785 C 284.460 502.058, 297.677 510.572, 321.500 518.523 C 327.550 520.542, 332.829 522.397, 333.231 522.644 C 333.633 522.892, 332.332 524.526, 330.339 526.275 C 328.347 528.024, 321.839 535.600, 315.877 543.110 C 298.745 564.692, 290.025 571.419, 277.511 572.711 C 264.336 574.071, 254 564.305, 254 550.497 C 254 545.752, 254.520 543.699, 256.435 540.880 C 259.676 536.111, 264.160 534.231, 268.374 535.873 C 273.102 537.716, 273.425 537.679, 273.797 535.243 C 274.025 533.746, 273.091 531.937, 271.023 529.869 C 268.248 527.094, 267.442 526.812, 263.702 527.312 C 261.391 527.620, 258.488 528.179, 257.250 528.553 C 255.466 529.092, 255 528.839, 255 527.327 C 255 523.550, 251.870 513.359, 248.545 506.308 C 244.950 498.685, 235.699 488, 232.693 488 C 230.331 488, 230.562 489.095, 233.895 493.696 C 237.879 499.196, 239.719 502.946, 242.281 510.783 C 244.291 516.933, 244.457 519.233, 244.246 538.013 L 244.015 558.525 247.005 564.846 C 248.871 568.792, 252.124 573.247, 255.661 576.700 L 261.328 582.233 255.914 581.549 C 243.374 579.964, 229.382 572.810, 224.626 565.552 C 222.534 562.359, 218 549.545, 218 546.825 C 218 543.833, 215.281 544.756, 214.098 548.149 C 212.083 553.928, 213.315 567.189, 216.169 570.450 C 217.604 572.091, 217.094 572.820, 214.042 573.491 C 207.471 574.934, 202.766 584.609, 204.400 593.318 C 205.368 598.479, 212.105 604, 217.434 604 C 220.379 604, 220.724 602.846, 218.364 600.887 C 217.464 600.140, 215.606 597.753, 214.236 595.581 C 211.807 591.733, 211.787 591.552, 213.456 588.451 C 214.476 586.557, 217.012 584.350, 219.723 582.996 C 224.234 580.743, 224.328 580.738, 229.888 582.483 C 232.975 583.452, 238.425 585.711, 242 587.503 C 251.629 592.330, 257.565 594.071, 264.582 594.125 L 270.869 594.173 270.333 600.836 C 269.280 613.941, 275.790 623.279, 286.082 623.427 C 291.642 623.507, 294 621.685, 294 617.309 C 294 614.472, 292.878 614.373, 290.500 617 C 288.210 619.530, 284.818 619.562, 282.567 617.074 C 280.242 614.505, 279.449 604.973, 280.955 597.717 C 282.093 592.233, 282.511 591.671, 290.323 585.116 C 299.889 577.089, 307.213 569.476, 323 551.150 C 334.568 537.721, 343.045 530.261, 350.563 526.892 C 352.797 525.891, 362.022 523.184, 371.063 520.875 C 385.526 517.182, 388.821 516.681, 398.500 516.697 C 408.680 516.715, 410.096 516.965, 417.500 520.052 C 424.176 522.836, 426.658 524.576, 432.500 530.570 C 438.539 536.765, 446.205 548, 444.394 548 C 444.061 548, 442.501 546.917, 440.928 545.593 C 439.354 544.269, 435.047 542.180, 431.356 540.952 C 425.500 539.003, 423.300 538.791, 414.073 539.288 C 401.930 539.940, 393.587 542.777, 382.435 550.042 C 371.315 557.287, 364.326 566.626, 356.874 584.198 C 354.704 589.314, 352.543 594.400, 352.071 595.500 C 344.078 614.140, 337.006 623.956, 330.371 625.622 C 328.062 626.201, 327.183 625.784, 324.861 623.003 C 323.342 621.183, 321.964 618.750, 321.800 617.597 C 321.635 616.444, 320.825 615.500, 320 615.500 C 317.818 615.500, 317.490 623.124, 319.492 627.341 C 323.914 636.661, 337.773 634.441, 347.070 622.922 C 350.195 619.050, 352.201 615.916, 360.033 602.667 L 361.708 599.834 364.104 604.665 C 367.377 611.265, 372.089 614.331, 377.967 613.687 C 383.050 613.129, 387 609.525, 387 605.444 C 387 602.477, 385.643 602.349, 382.273 605 C 380.874 606.100, 378.952 607, 378 607 C 374.864 607, 371.180 603.057, 369.450 597.849 C 364.341 582.467, 374.178 564.252, 392.244 555.641 C 396.235 553.739, 399.636 552.549, 399.802 552.997 C 399.968 553.445, 399.405 556.506, 398.552 559.800 C 396.571 567.443, 396.567 577.521, 398.542 583.119 C 399.390 585.523, 401.923 590.312, 404.171 593.763 C 408.379 600.221, 408.666 602.246, 406.435 609.750 C 405.484 612.952, 408.293 612.714, 410.924 609.369 C 413.668 605.881, 415.153 600.066, 414.369 595.885 C 414.020 594.023, 411.994 588.941, 409.867 584.591 C 406.375 577.449, 406 575.920, 406 568.809 C 406 552.579, 412.421 547.307, 427.549 551.117 C 433.527 552.622, 440.139 558.621, 443.084 565.212 L 445.446 570.500 445.118 618.496 C 444.938 644.894, 444.626 667.347, 444.425 668.392 C 444.223 669.437, 443.988 688.564, 443.902 710.896 C 443.760 747.988, 443.414 761.828, 441.511 806.500 C 440.685 825.902, 437.428 854.349, 434.882 864.402 C 430.255 882.666, 420.382 894.913, 399.844 907.863 C 392.316 912.610, 384.834 914.449, 366.500 916.058 C 334.167 918.894, 314.017 925.985, 303.556 938.206 C 297.652 945.103, 297.816 952.688, 303.947 956.309 C 311.436 960.733, 321 955.821, 321 947.550 C 321 944.155, 319.566 944.335, 316.149 948.160 C 312.976 951.711, 311 951.321, 311 947.144 C 311 939.241, 328.460 930.926, 351 928.094 C 367.978 925.962, 367.018 925.507, 359.626 932.179 C 352.571 938.547, 350.396 942.888, 351.341 948.714 C 351.653 950.638, 352.615 953.289, 353.477 954.606 C 354.836 956.679, 355.829 957, 360.888 957 C 368.049 957, 372 954.485, 372 949.927 C 372 946.545, 371.765 946.453, 368.532 948.571 C 366.618 949.825, 365.696 949.908, 363.961 948.979 C 362.190 948.031, 361.902 947.238, 362.409 944.706 C 364.039 936.556, 376.366 930.546, 394.500 929.061 C 400 928.611, 404.694 928.420, 404.932 928.636 C 405.169 928.853, 403.986 930.486, 402.302 932.265 C 398.006 936.804, 396.999 939.164, 397.004 944.684 C 397.010 953.361, 402.292 958.918, 409.286 957.606 C 413.746 956.769, 416.037 954.140, 416.716 949.078 C 417.376 944.163, 416.512 943.962, 412.969 948.207 L 410.292 951.413 409.079 949.148 C 404.676 940.921, 418.847 928.280, 435.500 925.579 C 437.150 925.311, 441.425 924.625, 445 924.054 C 453.154 922.751, 466.654 922.718, 474.500 923.981 C 477.800 924.513, 482.287 925.228, 484.471 925.571 C 499.042 927.857, 512 937.537, 512 946.135 C 512 951.282, 510.207 952.011, 507 948.169 C 503.757 944.285, 502.999 944.205, 503.004 947.750 C 503.014 955.364, 510.555 960.013, 517.513 956.695 C 524.099 953.555, 525.018 940.598, 519.178 933.224 C 517.430 931.018, 516 929.043, 516 928.837 C 516 928.630, 519.487 928.602, 523.750 928.775 C 532.567 929.133, 545.898 932.783, 551.040 936.248 C 555.184 939.041, 559.094 944.591, 558.326 946.592 C 557.262 949.366, 554.082 950.284, 551.468 948.571 C 548.152 946.398, 547.829 946.554, 548.187 950.151 C 548.630 954.605, 552.373 957.098, 558.856 957.257 C 565.346 957.415, 567.714 955.365, 568.612 948.811 C 569.478 942.494, 566.543 936.544, 560.024 931.401 C 557.305 929.255, 555.062 927.240, 555.040 926.923 C 554.997 926.297, 557.055 926.461, 570 928.109 C 585.343 930.062, 602.899 936.513, 606.975 941.695 C 609.194 944.517, 609.673 949.466, 607.837 950.601 C 607.160 951.019, 605.494 949.999, 603.851 948.160 C 602.299 946.422, 600.797 945, 600.514 945 C 600.231 945, 600 946.540, 600 948.423 C 600 953.750, 603.780 957.563, 609.346 957.851 C 613.133 958.047, 614.396 957.592, 617.418 954.938 C 622.745 950.261, 622.321 943.776, 616.278 937.500 C 605.217 926.014, 588.303 919.723, 561.152 916.997 C 542.804 915.155, 529.693 912.773, 525 910.428 C 512.932 904.397, 499.331 892.622, 492.800 882.551 C 485.155 870.760, 480.989 847.971, 478.989 807 C 478.385 794.625, 477.712 782.925, 477.494 781 C 477.276 779.075, 476.836 746.900, 476.516 709.500 C 476.197 672.100, 475.468 627.094, 474.897 609.488 C 473.952 580.359, 474.013 576.858, 475.581 570.616 C 478.715 558.139, 486.477 551.213, 498.399 550.256 C 502.945 549.891, 505.464 550.188, 507.723 551.357 C 511.990 553.563, 514.512 560.369, 514.461 569.542 C 514.427 575.815, 513.959 577.491, 510.172 584.900 C 506.825 591.450, 505.909 594.334, 505.859 598.483 C 505.777 605.314, 509.201 612, 512.780 612 C 513.937 612, 514.078 611.309, 513.443 608.750 C 511.715 601.785, 512.410 598.798, 517.555 591.092 L 522.500 583.685 522.484 572.092 C 522.474 565.050, 521.944 559.002, 521.134 556.683 C 520.401 554.584, 519.987 552.679, 520.216 552.451 C 521.504 551.162, 535.395 559.441, 540.685 564.650 C 548.058 571.910, 551.131 578.077, 551.753 586.857 C 552.361 595.455, 550.787 601.160, 546.904 604.427 C 543.040 607.679, 540.587 607.678, 537.332 604.423 C 534.211 601.302, 532.495 602.424, 533.486 606.935 C 534.308 610.680, 537.504 612.990, 542.858 613.708 C 549.054 614.539, 552.766 611.796, 556.959 603.288 L 558.541 600.076 563.978 609.288 C 569.621 618.849, 578.523 629.184, 583.200 631.603 C 584.686 632.371, 587.745 633, 590 633 C 598.280 633, 602.431 628.421, 601.814 619.966 C 601.391 614.157, 599.669 613.960, 597.562 619.478 C 595.421 625.082, 593.111 626.522, 588.629 625.043 C 581.699 622.755, 576.766 615.340, 566.982 592.500 C 556.369 567.726, 551.242 559.881, 540.586 552.114 C 532.750 546.401, 528.137 543.970, 520.219 541.381 C 506.617 536.933, 488.233 538.771, 479.469 545.456 C 475.547 548.447, 475.316 548.224, 477.654 543.700 C 482.921 533.510, 492.626 524.228, 502.386 520.047 C 508.800 517.300, 520.009 515.738, 527.500 516.547 C 536.519 517.523, 564.034 524.409, 570.136 527.219 C 578.326 530.990, 586.472 538.461, 601.307 555.810 C 615.197 572.054, 623.184 580.054, 632.633 587.188 C 635.705 589.508, 638.339 592.388, 638.751 593.880 C 639.150 595.321, 639.481 600.614, 639.488 605.642 C 639.498 613.240, 639.178 615.141, 637.595 616.892 C 635.196 619.547, 631.845 619.591, 629.500 617 C 627.017 614.256, 625.807 614.494, 626.184 617.651 C 627.059 624.989, 637.420 625.816, 644.151 619.084 C 648.712 614.523, 650.426 608.654, 649.651 600.250 L 649.075 594 655.356 594 C 663.220 594, 669.983 592.014, 680.928 586.491 C 692.324 580.740, 694.893 580.286, 700.541 583.020 C 708.824 587.029, 709.697 593.084, 702.927 599.570 C 701.317 601.112, 700 602.740, 700 603.187 C 700 604.870, 705.482 603.907, 709.583 601.504 C 714.780 598.459, 716.503 594.162, 715.689 586.279 C 715.001 579.607, 713.025 576.431, 708.201 574.240 C 706.165 573.316, 704.337 572.458, 704.138 572.334 C 703.938 572.210, 704.501 569.979, 705.388 567.376 C 708.065 559.518, 707.161 545, 703.993 545 C 703.412 545, 702.761 545.563, 702.545 546.250 C 702.330 546.938, 701.216 550.650, 700.070 554.500 C 697.438 563.340, 695.343 566.766, 689.781 571.323 C 683.081 576.814, 669.513 582, 661.850 582 C 659.229 582, 659.337 581.794, 664.576 576.839 C 675.057 566.928, 678.587 555.129, 676.016 538.604 C 673.768 524.153, 677.596 506.461, 685.514 494.703 C 689.472 488.826, 689.690 488, 687.287 488 C 684.335 488, 675.231 498.705, 671.505 506.557 C 669.577 510.620, 667.248 517.363, 666.330 521.544 C 664.804 528.490, 664.481 529.085, 662.580 528.459 C 661.436 528.082, 658.774 527.548, 656.664 527.273 C 653.337 526.840, 652.377 527.212, 649.414 530.083 C 644.307 535.033, 644.854 539.161, 650.248 536.372 C 657.059 532.849, 664.204 537.701, 666.197 547.201 C 667.207 552.020, 667.120 553.398, 665.540 557.534 C 660.039 571.939, 645.983 576.783, 631.278 569.343 C 623.464 565.390, 618.101 560.312, 607.219 546.562 C 601.969 539.928, 595.186 531.924, 592.144 528.776 C 589.103 525.628, 586.890 522.776, 587.228 522.439 C 587.565 522.101, 589.340 521.443, 591.171 520.976 C 595.960 519.754, 609.646 514.712, 617.102 511.422 C 630.830 505.365, 640.645 496.825, 650.068 482.737 C 661.794 465.206, 666.033 453.331, 669.425 428.500 C 671.446 413.704, 673.721 408.597, 681.758 400.814 C 685.466 397.223, 690.413 393.311, 692.750 392.122 C 697.625 389.641, 698.240 387.975, 694.250 388.056 C 689.554 388.151, 683.227 391.355, 677.123 396.728 C 666.595 405.995, 663.154 413.437, 658.037 438 C 656.151 447.054, 652.284 460, 651.466 460 C 651.320 460, 650.426 456.512, 649.478 452.250 C 648.531 447.988, 645.060 438.022, 641.766 430.104 C 634.298 412.158, 632 404.211, 632 396.336 C 632 384.570, 637.695 376.605, 643.424 380.358 C 646.906 382.640, 648 382.416, 648 379.423 C 648 377.908, 646.795 375.641, 645.077 373.923 C 639.445 368.292, 631.575 371.069, 626.793 380.376 C 625.001 383.864, 624.661 386.350, 624.587 396.500 C 624.539 403.100, 624.826 409.962, 625.225 411.750 L 625.950 415 619.725 415.004 C 615.362 415.006, 612.563 415.579, 610.366 416.919 C 601.268 422.466, 597.979 435.307, 604 441.770 C 607.517 445.544, 608.985 444.698, 608.369 439.250 C 607.807 434.271, 609.578 428.425, 612.345 426.128 C 617.927 421.496, 627.882 424.530, 632.400 432.240 C 637.430 440.823, 639.216 447.687, 639.364 459 C 639.486 468.390, 639.225 470.081, 636.901 475 C 630.354 488.858, 615.760 500.572, 600.879 503.916 L 597.229 504.736 599.218 500.241 C 600.764 496.745, 601.121 494.163, 600.826 488.623 C 600.425 481.109, 600.074 480.191, 592.736 467.500 C 586.546 456.793, 585.171 449.963, 586.857 438.302 C 587.549 433.518, 589.050 427.430, 590.193 424.772 C 591.337 422.114, 591.961 419.627, 591.580 419.246 C 589.281 416.948, 580.396 427.032, 577.854 434.823 C 577.194 436.845, 576.566 443.849, 576.457 450.387 C 576.294 460.221, 575.977 462.433, 574.623 463.191 C 570.628 465.427, 567.700 475.460, 570.009 479 C 570.824 480.249, 571.409 479.969, 573.506 477.327 C 578.043 471.610, 586.122 471.981, 589.313 478.051 C 590.677 480.646, 591.019 483.005, 590.692 487.577 C 589.949 497.977, 585.446 504.683, 576.313 508.991 C 569.860 512.034, 556.466 512.110, 547 509.158 C 536.853 505.993, 525.715 503.998, 518.292 504.017 C 504.335 504.052, 486.241 511.211, 475.750 520.848 C 473.033 523.344, 473 523.348, 473 521.198 C 473 513.073, 480.986 493.881, 487.566 486.194 C 491.813 481.232, 502.865 474.126, 518.500 466.304 C 561.838 444.623, 581.620 421.050, 586.554 385.207 C 589.633 362.840, 594.039 348.398, 601.750 335.395 C 608.306 324.339, 606.329 319.848, 598.991 329.130 C 590.224 340.222, 579.901 361.139, 578.574 370.500 C 576.400 385.844, 571.363 403.026, 569.051 402.992 C 568.491 402.984, 564.866 396.499, 557.876 383 C 551.228 370.161, 550.760 360.298, 556 343.500 C 559.622 331.888, 560.292 326.355, 558.948 319.143 C 557.515 311.457, 554.042 303.253, 551.092 300.583 C 549.135 298.812, 549.011 298.809, 548.356 300.515 C 547.979 301.498, 548.419 306.210, 549.335 310.987 C 551.373 321.620, 551.463 331.144, 549.584 337.388 C 547.477 344.389, 546.511 345.240, 542.549 343.585 C 530.582 338.585, 520.226 341.869, 514.823 352.378 C 512.241 357.399, 511.342 365.998, 512.985 369.964 C 514.997 374.822, 516.643 373.694, 517.345 366.975 C 517.691 363.661, 518.677 359.591, 519.536 357.931 C 522.702 351.807, 530.810 349.299, 537.033 352.517 C 541.556 354.856, 543.242 359.231, 543.771 369.995 C 544.206 378.834, 544.575 380.201, 549.036 389.500 C 551.675 395, 554.771 401.879, 555.917 404.787 C 558.573 411.528, 558.650 419.809, 556.103 424.790 C 553.879 429.138, 543.238 439.551, 537.500 442.994 C 535.300 444.314, 533.275 445.656, 533 445.975 C 532.264 446.830, 516.237 455.792, 502.589 462.980 C 496.038 466.430, 486.930 471.671, 482.348 474.626 C 477.767 477.582, 473.800 480, 473.534 480 C 473.268 480, 473.244 478.762, 473.480 477.250 C 473.717 475.738, 474.428 470, 475.061 464.500 C 476.263 454.055, 480.168 437.069, 482.757 431.025 C 487.520 419.902, 489.685 416.220, 493.992 411.913 C 504.093 401.812, 513.462 404.975, 514.726 418.913 C 515.185 423.982, 514.840 425.905, 512.469 431.484 C 506.999 444.354, 514.749 441.350, 521.289 428.064 C 526.939 416.587, 524.809 405.017, 515.686 397.633 C 512.176 394.792, 511.279 394.551, 504.114 394.527 C 497.186 394.503, 495.817 394.828, 491.442 397.532 C 485.703 401.078, 480.365 407.718, 475.388 417.500 L 471.826 424.500 472.483 415.500 C 473.565 400.697, 478.062 384.777, 485.136 370.705 C 489.613 361.800, 495.738 352.569, 506.401 338.655 C 519.041 322.161, 526.521 310.479, 529.667 302.316 C 532.165 295.835, 532.317 294.356, 532.773 272.250 C 533.188 252.105, 533.053 249, 531.762 249 C 528.878 249, 524.037 266.883, 523.960 277.815 C 523.857 292.646, 518.004 308.890, 515.550 301.158 C 513.817 295.697, 505.592 292.659, 498.698 294.934 C 493.605 296.615, 489.797 303.530, 492.049 307.008 C 492.874 308.282, 493.269 308.189, 494.757 306.367 C 497.767 302.683, 500.640 301.718, 503.336 303.484 C 508.353 306.772, 509.278 313.141, 505.750 320.097 C 503.971 323.604, 490.646 340.711, 487.909 343 C 487.580 343.275, 483.816 348.225, 479.544 354 C 475.273 359.775, 471.568 364.722, 471.313 364.992 C 471.058 365.263, 471.012 353.563, 471.211 338.992 C 471.562 313.325, 471.656 312.266, 474.232 305 C 479.277 290.764, 484.057 278.836, 487.385 272.179 C 490.710 265.526, 492.434 259.553, 493.499 251 C 494.107 246.111, 492.917 240.282, 491.428 240.860 C 490.918 241.058, 489.138 245.108, 487.473 249.860 C 485.808 254.612, 482.341 262.100, 479.768 266.500 C 471.847 280.046, 467.882 288.080, 464.501 297.433 C 461.102 306.833, 459.617 308.659, 458.505 304.805 C 457.110 299.968, 450.585 284.306, 448.171 280 C 446.783 277.525, 443.731 272.293, 441.389 268.374 C 436.520 260.228, 432.639 251.422, 430.936 244.660 C 429.802 240.155, 429.071 239.262, 427.667 240.667 M 295.009 268.250 C 294.365 272.238, 293.632 276.547, 293.380 277.826 L 292.924 280.152 289.338 278.037 L 285.752 275.921 286.295 278.210 C 286.594 279.470, 287.127 281.417, 287.480 282.538 C 288.042 284.320, 287.340 284.826, 281.883 286.571 C 278.452 287.669, 275.499 289.002, 275.322 289.534 C 275.145 290.065, 277.812 291.373, 281.250 292.439 C 284.687 293.506, 287.654 294.484, 287.842 294.614 C 288.030 294.744, 287.606 296.448, 286.900 298.400 C 285.253 302.955, 286.133 303.753, 289.870 301.093 C 293.308 298.644, 293.512 298.906, 294.484 307 C 295.394 314.584, 296.186 318, 297.032 318 C 297.947 318, 298.591 315.079, 299.508 306.766 C 299.855 303.612, 300.545 300.781, 301.041 300.475 C 301.536 300.169, 303.365 300.655, 305.105 301.555 C 308.250 303.180, 308.266 303.176, 307.716 300.845 C 307.411 299.555, 306.879 297.600, 306.534 296.500 C 305.986 294.753, 306.735 294.252, 312.465 292.534 C 316.072 291.453, 318.870 290.111, 318.684 289.552 C 318.497 288.992, 315.711 287.733, 312.491 286.753 C 309.271 285.772, 306.453 284.786, 306.227 284.560 C 306.001 284.334, 306.394 282.552, 307.100 280.600 C 308.747 276.045, 307.867 275.247, 304.130 277.907 C 301.353 279.885, 301.107 279.910, 300.595 278.266 C 300.103 276.691, 298.070 263.646, 298.020 261.750 C 298.009 261.337, 297.591 261, 297.091 261 C 296.591 261, 295.654 264.262, 295.009 268.250 M 621.052 270.500 C 620.334 275.725, 619.467 279.990, 619.124 279.978 C 618.781 279.966, 617.375 279.076, 616 278 C 614.625 276.924, 613.163 276.034, 612.750 276.022 C 611.479 275.985, 611.919 278.946, 613.554 281.443 C 615.409 284.273, 615.026 284.604, 607.185 286.931 C 604.136 287.837, 601.501 289.010, 601.330 289.539 C 601.159 290.067, 603.827 291.356, 607.259 292.402 C 615.484 294.909, 615.165 294.585, 613.287 298.525 C 611.204 302.892, 612.075 303.795, 615.805 301.139 C 617.412 299.995, 618.982 299.315, 619.294 299.628 C 619.607 299.940, 620.430 304.202, 621.123 309.098 C 621.816 313.994, 622.709 318, 623.108 318 C 623.939 318, 625.965 309.243, 626.070 305.201 C 626.109 303.715, 626.462 301.684, 626.855 300.687 C 627.532 298.972, 627.717 298.989, 630.275 301.002 C 633.945 303.889, 635.232 302.799, 633.381 298.370 C 632.557 296.398, 632.022 294.689, 632.191 294.573 C 632.361 294.457, 635.313 293.534, 638.750 292.522 C 642.188 291.511, 645 290.186, 645 289.579 C 645 288.972, 642.075 287.637, 638.500 286.614 C 634.925 285.590, 632 284.638, 632 284.498 C 632 284.358, 632.657 282.671, 633.460 280.749 C 635.328 276.279, 634.647 275.686, 630.474 278.148 L 627.115 280.130 626.574 276.815 C 626.276 274.992, 625.575 270.830, 625.016 267.566 C 624.457 264.303, 624 261.490, 624 261.316 C 624 261.142, 623.630 261, 623.178 261 C 622.726 261, 621.769 265.275, 621.052 270.500 M 195.717 356.516 C 195.406 357.607, 194.594 361.875, 193.912 366 C 193.231 370.125, 192.551 373.658, 192.401 373.852 C 192.252 374.046, 191.100 373.483, 189.842 372.602 C 186.735 370.426, 184.576 370.500, 185.522 372.750 C 187.809 378.192, 187.527 378.661, 180.588 380.971 C 176.957 382.179, 174.219 383.545, 174.504 384.006 C 174.789 384.467, 177.920 385.809, 181.463 386.988 L 187.905 389.131 186.273 392.553 C 184.230 396.838, 184.937 397.601, 189 395.500 C 190.752 394.594, 192.295 393.998, 192.428 394.176 C 192.561 394.354, 193.264 397.875, 193.991 402 C 194.717 406.125, 195.638 410.136, 196.037 410.913 C 196.950 412.693, 197.425 411.154, 199.016 401.250 C 200.215 393.787, 201.011 392.936, 204.397 395.500 C 207.217 397.634, 208.209 396.304, 206.402 392.811 C 204.509 389.149, 204.903 388.754, 212.804 386.404 C 215.722 385.536, 217.960 384.380, 217.778 383.833 C 217.596 383.287, 214.759 381.935, 211.473 380.828 C 208.188 379.722, 205.382 378.702, 205.237 378.562 C 205.092 378.422, 205.637 376.720, 206.447 374.781 C 208.294 370.361, 207.514 369.498, 203.959 372.030 C 202.437 373.113, 200.985 374, 200.733 374 C 200.481 374, 199.716 370.538, 199.033 366.306 C 198.351 362.074, 197.453 357.694, 197.038 356.572 C 196.293 354.559, 196.276 354.558, 195.717 356.516 M 722.642 358.292 C 722.325 359.552, 721.770 363.104, 721.408 366.185 C 720.474 374.131, 719.878 374.761, 715.942 371.959 L 712.677 369.634 713.268 372.567 C 713.594 374.180, 714.131 376.199, 714.462 377.054 C 714.924 378.247, 713.546 379.144, 708.532 380.914 C 704.939 382.182, 702 383.538, 702 383.927 C 702 384.316, 704.362 385.392, 707.250 386.318 C 714.933 388.782, 715.190 389.035, 713.783 392.763 C 712.280 396.745, 713.115 397.626, 716.369 395.494 C 719.487 393.451, 721 394.235, 721 397.892 C 721 402.209, 723.178 412, 724.138 412 C 724.612 412, 725.029 410.762, 725.064 409.250 C 725.150 405.592, 727.348 395.319, 728.234 394.432 C 728.621 394.046, 730.116 394.501, 731.556 395.444 C 735.013 397.710, 735.727 396.748, 733.717 392.533 L 732.076 389.091 739.054 386.843 C 742.892 385.607, 745.893 384.178, 745.722 383.667 C 745.552 383.156, 742.620 381.881, 739.206 380.833 C 732.598 378.804, 732.357 378.504, 734.162 374.543 C 735.706 371.156, 734.826 370.522, 731.190 372.402 C 727.617 374.250, 727.699 374.387, 725.897 363.657 C 724.576 355.796, 723.651 354.271, 722.642 358.292" stroke="none" fill="#f5f5f5" fill-rule="evenodd"/></svg>